<?xml version="1.0" encoding="utf-8"?>
<!-- Generator: Adobe Illustrator 22.0.1, SVG Export Plug-In . SVG Version: 6.00 Build 0)  -->
<svg version="1.1" id="Layer_1" xmlns="http://www.w3.org/2000/svg" xmlns:xlink="http://www.w3.org/1999/xlink" x="0px" y="0px"
	 viewBox="0 0 599.1 77.9" style="enable-background:new 0 0 599.1 77.9;" xml:space="preserve">
<style type="text/css">
	.st0{fill:#E2001A;}
</style>
<polyline points="84.7,75 40,75 40,71 84.7,75 "/>
<polyline points="80.3,72.5 35.6,72.5 35.6,68.6 80.3,72.5 "/>
<polyline points="75.9,70.1 31.2,70.1 31.2,66.1 75.9,70.1 "/>
<path class="st0" d="M61.7,75l19.8-46.9c0.8-1.9-0.1-4.2-2-5L28.3,1.5c-1.9-0.8-4.2,0.1-5,2L1.7,54.7c-0.8,1.9,0.1,4.2,2,5L40,75
	H61.7"/>
<path d="M110,35l-9,25.3h17.9L110,35 M124.2,75.6l-3.8-10.8H99.5l-3.8,10.8h-5.5l17.6-47.9h4.3l17.6,47.9H124.2z"/>
<polyline points="137.9,75.6 137.9,27.7 143,27.7 143,71 167.5,71 167.5,75.6 137.9,75.6 "/>
<polyline points="185.8,32.3 185.8,75.6 180.7,75.6 180.7,32.3 166.8,32.3 166.8,27.7 199.6,27.7 199.6,32.3 185.8,32.3 "/>
<path d="M226.3,32.3h-12.8v17.6h12.8c5.6,0,9.6-2.9,9.6-8.7C235.9,35.2,231.9,32.3,226.3,32.3 M236,75.6l-10.9-21.3h-11.5v21.3h-5.1
	V27.7h18.4c8.4,0,14.2,5,14.2,13.3c0,7-4.2,11.6-10.4,12.9L242,75.6H236z"/>
<path d="M275.2,35.3c-2.1-2.2-5.1-3.4-8.3-3.4c-3.2,0-6.2,1.3-8.3,3.4c-3,3.1-3.4,6.3-3.4,16.4c0,10,0.3,13.3,3.4,16.4
	c2.1,2.1,5.1,3.4,8.3,3.4c3.2,0,6.2-1.3,8.3-3.4c3-3.1,3.4-6.3,3.4-16.4C278.6,41.6,278.2,38.4,275.2,35.3 M279.2,71
	c-3.2,3.2-7.5,5-12.2,5c-4.8,0-9-1.8-12.3-5c-4.5-4.5-4.5-9.2-4.5-19.4s0-14.9,4.5-19.4c3.2-3.2,7.5-5,12.3-5c4.8,0,9,1.8,12.2,5
	c4.5,4.5,4.5,9.2,4.5,19.4S283.7,66.5,279.2,71z"/>
<path d="M310.2,76c-5.2,0-9.6-1.9-12.9-5.3c-4.8-4.8-4.7-10.8-4.7-19.1s-0.1-14.3,4.7-19.1c3.4-3.4,7.7-5.3,12.9-5.3
	c6.1,0,9.9,2.2,13.3,5.5l-6.2,6.2c-2.1-2.1-3.8-3.4-7.1-3.4c-2.6,0-4.6,0.9-5.9,2.5c-1.8,2-2.4,4.3-2.4,13.5s0.5,11.5,2.4,13.5
	c1.3,1.6,3.4,2.5,5.9,2.5c3.4,0,5-1.3,7.1-3.4l6.2,6.2C320.1,73.9,316.3,76,310.2,76"/>
<path d="M353.1,38.2c-1.3-1.5-3.4-2.6-6-2.6c-2.6,0-4.7,1-6.1,2.6c-1.8,2-2.3,4.2-2.3,13.5s0.5,11.4,2.3,13.5
	c1.3,1.5,3.5,2.6,6.1,2.6c2.6,0,4.6-1,6-2.6c1.8-2,2.4-4.2,2.4-13.5S354.9,40.2,353.1,38.2 M360.1,70.8c-3.4,3.4-7.5,5.3-12.9,5.3
	c-5.5,0-9.6-1.9-13-5.3c-4.8-4.8-4.7-10.8-4.7-19.1s-0.1-14.3,4.7-19.1c3.4-3.4,7.5-5.3,13-5.3c5.5,0,9.6,1.9,12.9,5.3
	c4.8,4.8,4.8,10.8,4.8,19.1S364.9,65.9,360.1,70.8z"/>
<polyline points="402.9,75.6 383.9,46.2 383.9,75.6 374.5,75.6 374.5,27.7 382.9,27.7 401.8,57 401.8,27.7 411.2,27.7 411.2,75.6 
	402.9,75.6 "/>
<path d="M436.3,76c-7.3,0-12.8-1.6-17.5-6.3l6.1-6.1c3,3,7.1,4,11.6,4c5.5,0,8.5-2.1,8.5-5.9c0-1.7-0.5-3.1-1.5-4
	c-0.9-0.9-2-1.3-4.2-1.7l-5.8-0.8c-4.1-0.6-7.1-1.9-9.3-4c-2.3-2.3-3.4-5.4-3.4-9.4c0-8.5,6.3-14.5,16.7-14.5
	c6.6,0,11.4,1.6,15.5,5.6l-5.9,5.9c-3-2.9-6.7-3.3-9.8-3.3c-5,0-7.4,2.8-7.4,6.1c0,1.2,0.4,2.5,1.4,3.4c0.9,0.9,2.5,1.6,4.4,1.9
	l5.7,0.8c4.4,0.6,7.1,1.8,9.2,3.7c2.6,2.4,3.7,5.9,3.7,10.2C454.1,70.8,446.3,76,436.3,76"/>
<path d="M479.9,76c-9.8,0-17.6-6.7-17.6-16.8V27.7h9.4v31.2c0,5.5,3.2,8.8,8.3,8.8c5,0,8.3-3.3,8.3-8.8V27.7h9.3v31.5
	C497.5,69.4,489.7,76,479.9,76"/>
<polyline points="542.2,75.6 542.2,47.7 533,65.9 526.7,65.9 517.5,47.7 517.5,75.6 508.1,75.6 508.1,27.7 517.4,27.7 529.9,53.6 
	542.3,27.7 551.6,27.7 551.6,75.6 542.2,75.6 "/>
<path d="M585,38.2c-1.3-1.5-3.4-2.6-6-2.6c-2.6,0-4.7,1-6.1,2.6c-1.8,2-2.3,4.2-2.3,13.5s0.5,11.4,2.3,13.5c1.3,1.5,3.5,2.6,6.1,2.6
	c2.6,0,4.6-1,6-2.6c1.8-2,2.4-4.2,2.4-13.5S586.8,40.2,585,38.2 M591.9,70.8c-3.4,3.4-7.5,5.3-12.9,5.3c-5.5,0-9.6-1.9-13-5.3
	c-4.8-4.8-4.7-10.8-4.7-19.1s-0.1-14.3,4.7-19.1c3.4-3.4,7.5-5.3,13-5.3c5.4,0,9.6,1.9,12.9,5.3c4.9,4.8,4.8,10.8,4.8,19.1
	S596.8,65.9,591.9,70.8z"/>
</svg>
