<?xml version="1.0" standalone="no"?>
<svg xmlns="http://www.w3.org/2000/svg" viewBox="0 0 165.528 36" width="165.528" height="36"><g fill="#4e4e4e" color="#4e4e4e" transform="translate(0 4) scale(0.4375)"><svg width="64.0" height="64.0" x="0.0" y="0.0" viewBox="0 0 64 64"><g><path d="M43.6,16.9c0-0.3-0.4-8.4-1.2-12c-0.5-2.1-1.9-3.5-4-4C38,0.8,37,0.5,36.2,1.2c-0.5,0.5-0.5,1.3-0.1,1.8   c0.4,0.4,1,0.5,1.5,0.2c0,0,0.1,0,0.2,0c1.2,0.3,1.9,0.9,2.1,2.1c0.7,3.4,1.1,11.5,1.1,11.6c0,0.9-0.1,1.4-0.5,1.6l-0.1,0   c0,0,0,0-0.1,0l-0.2,0.1c-0.5,0.2-1.2-0.1-1.7-0.4c-0.1,0-6.9-4.5-9.5-6.8c-0.9-0.8-1.1-1.7-0.7-2.9c0-0.1,0.1-0.2,0.1-0.2   c0.5-0.3,0.7-0.9,0.6-1.4c-0.2-0.7-0.9-1-1.6-0.8c-1,0.3-1.3,1.3-1.4,1.7c-0.7,2.1-0.2,4,1.4,5.5c2.7,2.5,9.5,6.9,9.8,7.1   c1,0.7,1.9,0.9,2.7,0.9c0.1,0,0.2,0,0.3,0c1.9,6.8-1,14.2-7.3,17.8c-3.6,2.1-7.9,2.6-11.9,1.5c-4-1.1-7.4-3.7-9.5-7.3   c-2.9-5-2.8-11.1,0.2-16c0,0,0,0,0.1,0c0.4,0.1,0.9,0.2,1.3,0.2c0.9,0,1.7-0.2,2.5-0.7c2.4-1.4,3.2-4.4,1.8-6.8   c-1.4-2.4-4.4-3.2-6.8-1.8c-1.2,0.7-2,1.7-2.3,3S8.2,13.9,8.9,15c0.2,0.4,0.5,0.7,0.8,1c-3.5,5.7-3.6,12.7-0.3,18.6   c2.4,4.2,6.3,7.2,11,8.5c1.6,0.4,3.2,0.6,4.8,0.6c2.6,0,5.2-0.6,7.6-1.7l12.1,18.2c0.1,0.2,0.3,0.5,0.5,0.7   c1.2,1.3,2.8,2.1,4.5,2.3c0.2,0,0.3,0,0.5,0c1.6,0,3.1-0.6,4.3-1.6c1.3-1.1,2.1-2.7,2.3-4.5c0.1-1.8-0.4-3.5-1.6-4.8L40.6,35.2   c2.7-4.3,3.5-9.8,2-14.9C43.2,19.7,43.7,18.7,43.6,16.9z M10.8,11.9c0.2-0.6,0.6-1.2,1.2-1.5c0.4-0.2,0.8-0.3,1.2-0.3   c0.9,0,1.7,0.5,2.2,1.3c0.7,1.2,0.3,2.7-0.9,3.4c-0.6,0.3-1.3,0.4-1.9,0.2c-0.6-0.2-1.2-0.6-1.5-1.2C10.7,13.2,10.6,12.5,10.8,11.9   z M53.5,54c0.7,0.8,1.1,1.9,1,3c-0.1,1.1-0.6,2.1-1.4,2.8c-1.7,1.5-4.3,1.3-5.8-0.4c-0.1-0.1-0.2-0.3-0.3-0.4L35,40.8   c1.6-1,2.9-2.2,4.1-3.5L53.5,54z"></path></g></svg></g><path fill="#45bb67" fill-rule="nonzero" d="M12.38 13.13L12.38 13.13Q12.38 15.50 11.10 16.78Q9.82 18.05 7.51 18.05L7.51 18.05L5.21 18.05Q2.38 18.05 1.19 17.06Q0 16.08 0 13.66L0 13.66L0 0.96L7.22 0.96Q9.67 0.96 10.91 2.18Q12.14 3.41 12.14 5.64L12.14 5.64Q12.14 6.94 11.48 7.85Q10.82 8.76 10.03 9.14L10.03 9.14Q12.38 10.25 12.38 13.13ZM3.34 7.63L6.96 7.63Q8.81 7.63 8.81 5.78Q8.81 3.94 6.96 3.94L6.96 3.94L3.34 3.94L3.34 7.63ZM9.05 12.96L9.05 12.96Q9.05 11.81 8.64 11.22Q8.23 10.63 7.18 10.63L7.18 10.63L3.34 10.63L3.34 13.32Q3.34 14.30 3.83 14.69Q4.32 15.07 5.45 15.07L5.45 15.07L7.18 15.07Q9.05 15.07 9.05 12.96ZM22.97 11.86L22.97 11.86L22.97 10.61Q22.97 8.83 22.45 7.90Q21.94 6.96 20.30 6.96L20.30 6.96Q17.66 6.96 17.66 10.51L17.66 10.51L17.66 11.76Q17.66 15.58 20.30 15.58L20.30 15.58Q22.01 15.58 22.54 14.30L22.54 14.30Q22.97 13.30 22.97 11.86ZM26.09 11.14L26.09 11.14Q26.09 15.58 24.41 17.09L24.41 17.09Q22.99 18.38 20.30 18.38L20.30 18.38Q16.87 18.38 15.67 16.37L15.67 16.37Q14.54 14.52 14.54 11.14L14.54 11.14Q14.54 7.97 15.67 6.17L15.67 6.17Q16.92 4.15 20.22 4.15Q23.52 4.15 24.80 5.92Q26.09 7.68 26.09 11.14ZM36 11.86L36 11.86L36 10.61Q36 8.83 35.48 7.90Q34.97 6.96 33.34 6.96L33.34 6.96Q30.70 6.96 30.70 10.51L30.70 10.51L30.70 11.76Q30.70 15.58 33.34 15.58L33.34 15.58Q35.04 15.58 35.57 14.30L35.57 14.30Q36 13.30 36 11.86ZM39.12 11.14L39.12 11.14Q39.12 15.58 37.44 17.09L37.44 17.09Q36.02 18.38 33.34 18.38L33.34 18.38Q29.90 18.38 28.70 16.37L28.70 16.37Q27.58 14.52 27.58 11.14L27.58 11.14Q27.58 7.97 28.70 6.17L28.70 6.17Q29.95 4.15 33.25 4.15Q36.55 4.15 37.84 5.92Q39.12 7.68 39.12 11.14ZM44.62 0L44.62 18.05L41.50 18.07L41.50 0L44.62 0ZM61.10 9.43L61.10 9.43L61.13 11.28Q61.03 13.03 60.70 14.23Q60.36 15.43 59.38 16.42L59.38 16.42Q57.74 18.05 54.62 18.05L54.62 18.05Q50.95 18.05 49.58 17.08Q48.22 16.10 48.22 13.56L48.22 13.56L48.22 0.96L54.86 0.96Q57.74 0.96 59.38 2.59L59.38 2.59Q60.70 3.91 60.94 5.81L60.94 5.81Q61.10 7.15 61.10 9.43ZM57.05 14.02Q57.50 13.46 57.64 12.49Q57.77 11.52 57.77 9.46Q57.77 7.39 57.64 6.47Q57.50 5.54 57.05 4.99L57.05 4.99Q56.18 3.94 54.55 3.94L54.55 3.94L51.55 3.94L51.55 13.39Q51.55 14.35 52.20 14.71Q52.85 15.07 54.52 15.07Q56.18 15.07 57.05 14.02L57.05 14.02ZM71.21 11.86L71.21 11.86L71.21 10.61Q71.21 8.83 70.69 7.90Q70.18 6.96 68.54 6.96L68.54 6.96Q65.90 6.96 65.90 10.51L65.90 10.51L65.90 11.76Q65.90 15.58 68.54 15.58L68.54 15.58Q70.25 15.58 70.78 14.30L70.78 14.30Q71.21 13.30 71.21 11.86ZM74.33 11.14L74.33 11.14Q74.33 15.58 72.65 17.09L72.65 17.09Q71.23 18.38 68.54 18.38L68.54 18.38Q65.11 18.38 63.91 16.37L63.91 16.37Q62.78 14.52 62.78 11.14L62.78 11.14Q62.78 7.97 63.91 6.17L63.91 6.17Q65.16 4.15 68.46 4.15Q71.76 4.15 73.04 5.92Q74.33 7.68 74.33 11.14ZM83.83 13.03L83.83 13.03L86.66 13.01Q86.64 13.20 86.62 13.70Q86.59 14.21 86.58 14.39Q86.57 14.57 86.52 14.95Q86.47 15.34 86.41 15.52Q86.35 15.70 86.26 15.98L86.26 15.98Q85.82 17.23 83.90 17.95L83.90 17.95Q82.68 18.38 81.35 18.38Q80.02 18.38 78.94 17.95Q77.86 17.52 77.23 16.85L77.23 16.85Q75.82 15.36 75.82 11.27Q75.82 7.18 77.23 5.69L77.23 5.69Q77.86 5.02 78.94 4.58Q80.02 4.15 81.34 4.15L81.34 4.15Q83.93 4.15 85.27 5.45Q86.62 6.74 86.62 9.05L86.62 9.05L83.78 9.05Q83.78 7.99 83.26 7.48Q82.73 6.96 81.30 6.96Q79.87 6.96 79.40 7.85Q78.94 8.74 78.94 10.51L78.94 10.51L78.94 11.76Q78.94 14.62 80.04 15.26L80.04 15.26Q80.54 15.58 81.36 15.58Q82.18 15.58 82.69 15.42Q83.21 15.26 83.44 14.88Q83.66 14.50 83.74 14.12Q83.81 13.75 83.83 13.03ZM95.14 15.41L95.14 18.05L93.19 18.05Q91.42 18.05 90.49 16.99Q89.57 15.94 89.57 14.47L89.57 14.47L89.57 7.27L88.25 7.27L88.25 4.90L89.57 4.90L89.57 2.21L92.69 2.21L92.69 4.90L94.90 4.90L94.90 7.27L92.69 7.27L92.69 14.28Q92.69 15.41 93.77 15.41L93.77 15.41L95.14 15.41ZM105.14 11.86L105.14 11.86L105.14 10.61Q105.14 8.83 104.63 7.90Q104.11 6.96 102.48 6.96L102.48 6.96Q99.84 6.96 99.84 10.51L99.84 10.51L99.84 11.76Q99.84 15.58 102.48 15.58L102.48 15.58Q104.18 15.58 104.71 14.30L104.71 14.30Q105.14 13.30 105.14 11.86ZM108.26 11.14L108.26 11.14Q108.26 15.58 106.58 17.09L106.58 17.09Q105.17 18.38 102.48 18.38L102.48 18.38Q99.05 18.38 97.85 16.37L97.85 16.37Q96.72 14.52 96.72 11.14L96.72 11.14Q96.72 7.97 97.85 6.17L97.85 6.17Q99.10 4.15 102.40 4.15Q105.70 4.15 106.98 5.92Q108.26 7.68 108.26 11.14ZM118.03 4.39L118.03 4.39L117.17 7.46Q116.81 7.32 116.35 7.32L116.35 7.32Q115.15 7.32 113.40 8.35L113.40 8.35L113.40 18.05L110.28 18.05L110.28 4.34L112.61 4.34L113.33 5.54L116.64 4.18Q116.88 4.15 117.29 4.15Q117.70 4.15 118.03 4.39ZM129.53 14.26L129.53 14.26L129.53 14.62Q129.38 16.42 128.00 17.33Q126.62 18.24 124.56 18.24L124.56 18.24Q121.51 18.24 120.29 17.14L120.29 17.14Q119.16 16.13 119.16 14.16L119.16 14.16L119.16 13.87L121.99 13.87Q121.99 14.98 122.57 15.38Q123.14 15.79 124.56 15.79L124.56 15.79Q126.48 15.79 126.48 14.40L126.48 14.40Q126.48 13.25 125.81 12.86L125.81 12.86Q125.50 12.67 125.02 12.58L125.02 12.58L122.59 12.17Q119.42 11.66 119.42 8.21L119.42 8.21Q119.42 6.29 120.83 5.22Q122.23 4.15 124.39 4.15L124.39 4.15Q129.31 4.15 129.31 8.40L129.31 8.40L129.31 8.71L126.60 8.71Q126.55 7.58 126 7.18Q125.45 6.77 124.45 6.77Q123.46 6.77 122.95 7.16Q122.45 7.56 122.45 8.04L122.45 8.04Q122.45 9.41 123.55 9.60L123.55 9.60L126.46 10.13Q129.53 10.70 129.53 14.26Z" transform="translate(36, 8.976)"></path></svg>