<?xml version="1.0" encoding="utf-8"?>
<!-- Generator: Adobe Illustrator 23.0.1, SVG Export Plug-In . SVG Version: 6.00 Build 0)  -->
<svg version="1.1" id="Livello_1" xmlns="http://www.w3.org/2000/svg" xmlns:xlink="http://www.w3.org/1999/xlink" x="0px" y="0px"
	 viewBox="0 0 514.5 365.7" style="enable-background:new 0 0 514.5 365.7;" xml:space="preserve">
<style type="text/css">
	.st0{fill:#EDEDED;}
	.st1{fill:#FFFFFF;stroke:#EDEDED;stroke-width:1.8336;stroke-miterlimit:10;}
	.st2{fill:#FAB334;}
	.st3{fill:#B9B8B8;}
	.st4{fill:#FFFFFF;stroke:#EDEDED;stroke-width:2.7527;stroke-miterlimit:10;}
	.st5{fill:#FFFFFF;stroke:#EDEDED;stroke-width:2.1454;stroke-miterlimit:10;}
	.st6{fill:#FFFFFF;stroke:#EDEDED;stroke-width:2.2967;stroke-miterlimit:10;}
	.st7{fill:#FFFFFF;stroke:#EDEDED;stroke-width:2.2899;stroke-miterlimit:10;}
	.st8{fill:#FFFFFF;stroke:#EDEDED;stroke-width:2.4864;stroke-miterlimit:10;}
</style>
<g>
	<g>
		<path class="st0" d="M102.9,119.8c-0.5-5.1-1.4-10.4-4.3-14.6c-1.9-2.7-4.3-4.6-7.1-6.1c-6.3-3.2-14.3-3.7-21.6-3.7
			c-16.4,0.1-32.7,1-49,2.9c-3.2,0.4-6.5,0.8-9.4,2.1l0,0c-3.7,1.5-10.5,3.1-11.2,7.1c-0.7,3.9-0.1,7.9,0.7,11.9
			c1.5,7.8,3.4,15.5,7.1,22.5c0,0.1,0.1,0.1,0.1,0.2c0.5,1,1.1,1.9,1.7,2.9c3.5,5.6,8.3,10.4,14.3,13.1c0.1,0.1,0.3,0.1,0.4,0.2
			c4.4,1.9,9.1,2.7,13.9,3.1c0.3,0,0.5,0.1,0.7,0.1c4.4,0.3,8.8,0.4,13.2,0.3c2.1,3,4.1,6.1,6.2,9.1c1.2,1.8,2.4,3.6,3.7,5.4
			c0.3-1,0.6-2,0.9-3c1.2-4.2,1.8-8.4,2-12.6c10.8-1.6,21.4-4.8,31.4-9.4c2.2-1,4.4-2.2,5.7-4.2c1.1-1.8,1.2-3.9,1.3-6
			c0-0.4,0-0.7,0-1.1l0,0C103.8,133,103.6,126.4,102.9,119.8z"/>
	</g>
	<g>
		<path class="st0" d="M370.4,206.5c1.3-5,2.3-10.2,1-15.2c-0.8-3.2-2.4-5.9-4.6-8.2c-4.8-5.2-12.1-8.5-19-11
			c-15.4-5.6-31-10.4-46.9-14.3c-3.1-0.8-6.4-1.5-9.6-1.4l0,0c-4,0.1-10.9-0.7-12.9,2.7c-2,3.4-2.8,7.4-3.5,11.4
			c-1.3,7.8-2.2,15.7-1.2,23.6c0,0.1,0,0.1,0,0.2c0.1,1.1,0.3,2.2,0.6,3.3c1.4,6.5,4.2,12.7,8.8,17.3c0.1,0.1,0.2,0.2,0.3,0.3
			c3.4,3.3,7.6,5.7,11.9,7.8c0.2,0.1,0.5,0.2,0.7,0.3c4,1.8,8.1,3.5,12.2,4.8c0.9,3.6,1.7,7.1,2.6,10.6c0.5,2.1,1,4.2,1.6,6.4
			c0.6-0.8,1.3-1.7,1.9-2.5c2.5-3.5,4.7-7.3,6.3-11.1c10.7,2.2,21.8,3,32.7,2.1c2.4-0.2,4.9-0.5,6.8-2c1.6-1.3,2.5-3.3,3.4-5.2
			c0.1-0.3,0.3-0.7,0.4-1.1l0,0C366.7,219.3,368.8,212.9,370.4,206.5z"/>
	</g>
	<g>
		<path class="st0" d="M511.9,149.4C511.9,149.4,511.9,149.4,511.9,149.4c-2.5-7-7.7-13.3-14.8-15.5l0.5-1.1
			c-1.4,0.1-2.8,0.3-4.2,0.4c-5.4,0.5-10.8,1.1-16.2,1.8c-9.7,1.2-19.3,2.5-28.9,4c-7.6,1.2-16.2,3.1-20.2,9.5
			c-2.4,3.7-2.7,8.3-2.6,12.6c0,9.2,1.1,18.4,3.3,27.4c0.6,2.6,1.4,5.3,3.2,7.3c3.3,3.8,8.9,4.4,14,4.7c7.1,0.3,14.3,0.3,21.4,0
			c2.1,4.8,4.6,9.4,7.6,13.8c0.3-4.9,1.2-9.8,2.6-14.5c5-0.4,10-1,15-1.8c6.3-1,13.1-2.5,17.3-7.2c4.5-5,4.7-12.3,4.7-18.9
			c0-3.5,0-7-0.2-10.5C513.9,157.4,513.2,153.3,511.9,149.4z"/>
	</g>
	<g>
		<path class="st0" d="M250,50.9C250,50.9,250,50.9,250,50.9c-2.5-7-7.7-13.3-14.8-15.5l0.5-1.1c-1.4,0.1-2.8,0.3-4.2,0.4
			c-5.4,0.5-10.8,1.1-16.2,1.8c-9.7,1.2-19.3,2.5-28.9,4c-7.6,1.2-16.2,3.1-20.2,9.5c-2.4,3.7-2.7,8.3-2.6,12.6
			c0,9.2,1.1,18.4,3.3,27.4c0.6,2.6,1.4,5.3,3.2,7.3c3.3,3.8,8.9,4.4,14,4.7c7.1,0.3,14.3,0.3,21.4,0c2.1,4.8,4.6,9.4,7.6,13.8
			c0.3-4.9,1.2-9.8,2.6-14.5c5-0.4,10-1,15-1.8c6.3-1,13.1-2.5,17.3-7.2c4.5-5,4.7-12.3,4.7-18.9c0-3.5,0-7-0.2-10.5
			C252,58.9,251.4,54.8,250,50.9z"/>
	</g>
	<g>
		<path class="st0" d="M409.7,55.7C409.7,55.6,409.7,55.6,409.7,55.7c0.7-5.1-0.6-10.7-4.3-14.3l0.7-0.5c-0.9-0.4-1.8-0.7-2.7-1.1
			c-3.5-1.4-7-2.7-10.6-4c-6.4-2.3-12.8-4.6-19.2-6.7c-5.1-1.7-11-3.2-15.5-0.5c-2.6,1.6-4.3,4.3-5.6,7c-2.9,5.7-5.1,11.8-6.6,18
			c-0.4,1.8-0.8,3.7-0.3,5.5c0.8,3.4,4.1,5.6,7.2,7.3c4.3,2.5,8.7,4.7,13.3,6.8c-0.2,3.7-0.1,7.3,0.3,11c1.7-2.9,3.9-5.7,6.2-8.1
			c3.2,1.3,6.5,2.5,9.8,3.6c4.2,1.4,8.9,2.6,13,1c4.4-1.7,6.8-6.1,8.9-10.2c1.1-2.2,2.2-4.4,3.2-6.6
			C408.4,61.2,409.3,58.5,409.7,55.7z"/>
	</g>
	<g>
		<path class="st0" d="M459.2,103.3C459.2,103.2,459.2,103.2,459.2,103.3c-1.4-2.8-4-5.3-7.1-5.8l0.2-0.5c-0.6,0.1-1.2,0.3-1.7,0.4
			c-2.3,0.5-4.5,1-6.8,1.6c-4.1,1-8.1,2.1-12.1,3.2c-3.2,0.9-6.7,2.1-8.1,5.1c-0.8,1.7-0.7,3.7-0.5,5.5c0.5,3.9,1.4,7.8,2.8,11.5
			c0.4,1.1,0.9,2.2,1.7,2.9c1.6,1.5,4,1.4,6.2,1.3c3-0.2,6.1-0.6,9.1-1.1c1.1,1.9,2.4,3.8,3.9,5.5c-0.1-2.1,0-4.2,0.4-6.3
			c2.1-0.4,4.2-0.9,6.3-1.5c2.6-0.7,5.4-1.7,7-3.9c1.6-2.4,1.4-5.5,1-8.3c-0.2-1.5-0.4-3-0.6-4.4C460.5,106.6,460,104.9,459.2,103.3
			z"/>
	</g>
	<g>
		<g id="Livello_9_3_">
			<g>
				<g>
					<path class="st1" d="M337.6,35.9c0,0,0,0,0-0.1c-0.2-8.5-3.5-17.5-10.4-22.4l0.9-1.1c-1.6-0.3-3.1-0.7-4.6-1
						c-6-1.3-12-2.5-18-3.7c-10.8-2.1-21.7-4-32.5-5.7c-8.7-1.3-18.5-2.3-25.1,3.4c-3.9,3.3-5.8,8.3-7.3,13.2
						c-3.3,10.3-5.4,20.9-6.2,31.7c-0.3,3.1-0.4,6.3,0.8,9.2c2.2,5.4,8,8.1,13.4,10.1c7.5,2.9,15.2,5.4,23,7.5
						c0.5,6.1,1.6,12.1,3.2,18c2.1-5.3,4.8-10.5,8-15.2c5.5,1.3,11.1,2.4,16.7,3.3c7.2,1.2,15,1.9,21.2-1.9c6.6-4,9.4-12,11.8-19.4
						c1.3-3.9,2.5-7.8,3.5-11.7C336.9,45.4,337.7,40.7,337.6,35.9z"/>
				</g>
				<path class="st2" d="M262.4,54.4c-1-0.3-1.9-0.6-2.9-0.9c-0.3-1-0.7-2-0.9-3c-0.2-0.6-1.3-0.9-1.7-0.3c-0.6,0.9-1.2,1.8-1.8,2.6
					c-1,0-2,0-3,0c-0.5,0-1.2,0.4-0.7,1c0.3,0.5,0.7,1,1.1,1.4c0.2,0.2,0.6,0.9,0.8,1.1c0,0.2-0.1,0.4-0.1,0.4
					c-0.1,0.3-0.2,0.7-0.3,1c-0.2,0.6-0.3,1.1-0.6,1.7c-0.3,0.7,0.8,1.1,1.4,0.9c0.9-0.3,1.9-0.7,2.8-1c0.8,0.6,1.6,1.1,2.4,1.7
					c0.1,0.1,0.2,0.1,0.3,0.1c0.5,0.2,1.2,0.1,1.2-0.5c0-0.6,0-1.2,0-1.8c0-0.3,0-1.1,0-1.5c0.3-0.1,1-0.7,1.2-0.9
					c0.5-0.3,0.9-0.7,1.4-1.1C263.4,55.2,262.9,54.5,262.4,54.4z"/>
				<path class="st2" d="M274.3,57.1c-1-0.3-1.9-0.6-2.9-0.9c-0.3-1-0.7-2-0.9-3c-0.2-0.6-1.3-0.9-1.7-0.3c-0.6,0.9-1.2,1.8-1.8,2.6
					c-1,0-2,0-3,0c-0.5,0-1.2,0.4-0.7,1c0.3,0.5,0.7,1,1.1,1.4c0.2,0.2,0.6,0.9,0.8,1.1c0,0.2-0.1,0.4-0.1,0.4
					c-0.1,0.3-0.2,0.7-0.3,1c-0.2,0.6-0.3,1.1-0.6,1.7c-0.3,0.7,0.8,1.1,1.4,0.9c0.9-0.3,1.9-0.7,2.8-1c0.8,0.6,1.6,1.1,2.4,1.7
					c0.1,0.1,0.2,0.1,0.3,0.1c0.5,0.2,1.2,0.1,1.2-0.5c0-0.6,0-1.2,0-1.8c0-0.3,0-1.1,0-1.5c0.3-0.1,1-0.7,1.2-0.9
					c0.5-0.3,0.9-0.7,1.4-1.1C275.4,57.9,274.8,57.2,274.3,57.1z"/>
				<path class="st2" d="M286.5,59.8c-1-0.3-1.9-0.6-2.9-0.9c-0.3-1-0.7-2-0.9-3c-0.2-0.6-1.3-0.9-1.7-0.3c-0.6,0.9-1.2,1.8-1.8,2.6
					c-1,0-2,0-3,0c-0.5,0-1.2,0.4-0.7,1c0.3,0.5,0.7,1,1.1,1.4c0.2,0.2,0.6,0.9,0.8,1.1c0,0.2-0.1,0.4-0.1,0.4
					c-0.1,0.3-0.2,0.7-0.3,1c-0.2,0.6-0.3,1.1-0.6,1.7c-0.3,0.7,0.8,1.1,1.4,0.9c0.9-0.3,1.9-0.7,2.8-1c0.8,0.6,1.6,1.1,2.4,1.7
					c0.1,0.1,0.2,0.1,0.3,0.1c0.5,0.2,1.2,0.1,1.2-0.5c0-0.6,0-1.2,0-1.8c0-0.3,0-1.1,0-1.5c0.3-0.1,1-0.7,1.2-0.9
					c0.5-0.3,0.9-0.7,1.4-1.1C287.6,60.6,287,59.9,286.5,59.8z"/>
				<path class="st2" d="M298.7,62.5c-1-0.3-1.9-0.6-2.9-0.9c-0.3-1-0.7-2-0.9-3c-0.2-0.6-1.3-0.9-1.7-0.3c-0.6,0.9-1.2,1.8-1.8,2.6
					c-1,0-2,0-3,0c-0.5,0-1.2,0.4-0.7,1c0.3,0.5,0.7,1,1.1,1.4c0.2,0.2,0.6,0.9,0.8,1.1c0,0.2-0.1,0.4-0.1,0.4
					c-0.1,0.3-0.2,0.7-0.3,1c-0.2,0.6-0.3,1.1-0.6,1.7c-0.3,0.7,0.8,1.1,1.4,0.9c0.9-0.3,1.9-0.7,2.8-1c0.8,0.6,1.6,1.1,2.4,1.7
					c0.1,0,0.1,0.1,0.2,0.1c0.6,0.3,1.4,0.2,1.3-0.5c0-0.6,0-1.2,0-1.8c0-0.3,0-1.1,0-1.5c0.3-0.1,1-0.7,1.2-0.9
					c0.5-0.3,0.9-0.7,1.4-1.1C299.8,63.4,299.2,62.6,298.7,62.5z"/>
				<path class="st2" d="M311.4,66.3c-0.9-0.4-1.9-0.9-2.8-1.3c-0.2-1-0.4-2-0.6-3c-0.1-0.8-1.2-1.1-1.7-0.5
					c-0.7,0.8-1.4,1.5-2.1,2.3c-1-0.1-2-0.3-3.1-0.4c-0.6-0.1-1,0.5-0.7,1c0.3,0.5,0.6,1,0.9,1.5c0.2,0.3,0.4,0.6,0.5,0.9
					c0.1,0.1,0.1,0.2,0.1,0.3c-0.1,0.2-0.2,0.4-0.2,0.4c-0.2,0.3-0.3,0.7-0.5,1c-0.3,0.5-0.5,1.1-0.8,1.6c-0.3,0.6,0.7,1.1,1.2,1
					c0.6-0.1,1.1-0.2,1.8-0.3c0.2-0.1,0.9-0.1,1.3-0.2c0,0,0.1,0.1,0.1,0.1c0.2,0.3,0.5,0.5,0.8,0.7c0.3,0.3,0.6,0.5,0.9,0.8
					c0.1,0.7,1.7,0.9,1.8,0c0,0,0,0,0,0c0-0.1,0-0.1,0-0.2c0.1-1,0.2-2,0.3-3c0.9-0.5,1.8-1,2.8-1.5C312,67.3,312,66.6,311.4,66.3z"
					/>
				<g>
					<path class="st3" d="M322.5,31.8c-5.6-0.9-11.2-1.9-16.8-3c-2.8-0.5-5.5-1.1-8.3-1.7l-8.3-1.8l-8.3-1.9c-2.8-0.7-5.5-1.3-8.3-2
						c-5.5-1.4-11-2.8-16.4-4.5c5.6,0.9,11.2,1.9,16.8,3c2.8,0.5,5.5,1.1,8.3,1.7l8.3,1.8l8.3,1.9c2.8,0.7,5.5,1.3,8.3,2
						C311.5,28.7,317.1,30.2,322.5,31.8z"/>
				</g>
				<g>
					<path class="st3" d="M316.7,38.9c-5.8-0.9-11.5-1.9-17.2-3.1c-2.8-0.5-5.7-1.2-8.6-1.8l-8.5-1.9l-8.5-2c-2.8-0.7-5.7-1.3-8.5-2
						c-5.7-1.4-11.3-2.9-16.9-4.6c5.8,0.9,11.5,1.9,17.2,3.1c2.8,0.5,5.7,1.2,8.6,1.8l8.5,1.9l8.5,2c2.8,0.7,5.7,1.3,8.5,2
						C305.5,35.7,311.1,37.2,316.7,38.9z"/>
				</g>
				<g>
					<path class="st3" d="M259.2,35.7c4.1,0.5,8.1,1.2,12.1,1.9c2,0.3,4,0.8,6,1.2l6,1.3l6,1.4c2,0.5,4,0.9,6,1.5
						c4,1,7.9,2.1,11.8,3.4c-4.1-0.5-8.1-1.2-12.1-1.9c-2-0.3-4-0.8-6-1.2l-6-1.3l-6-1.4c-2-0.5-4-0.9-6-1.5
						C267,38.1,263,37,259.2,35.7z"/>
				</g>
				<g>
					<path class="st3" d="M276.2,13.9c2.6,0.2,5.2,0.6,7.7,0.9c2.5,0.4,5.1,0.9,7.6,1.5c2.5,0.6,5,1.2,7.5,1.9
						c2.5,0.7,5,1.5,7.4,2.4c-2.6-0.2-5.2-0.5-7.7-0.9s-5.1-0.9-7.6-1.5c-2.5-0.6-5-1.2-7.5-1.9C281.1,15.7,278.6,14.9,276.2,13.9z"
						/>
				</g>
			</g>
			<g>
				<g>
					<path class="st1" d="M430.8,96.4c0,0,0,0,0-0.1c-0.2-8.5-3.7-17.4-10.6-22.3L421,73c-1.6-0.3-3.1-0.7-4.6-0.9
						c-6-1.2-12-2.4-18.1-3.5c-10.8-2-21.7-3.8-32.6-5.4c-8.7-1.3-18.5-2.1-25.1,3.7c-3.8,3.4-5.7,8.3-7.2,13.2
						c-3.2,10.3-5.2,21-6,31.7c-0.2,3.1-0.3,6.4,0.9,9.2c2.2,5.4,8.1,8,13.5,10c7.5,2.8,15.3,5.3,23.1,7.3c0.6,6.1,1.7,12.1,3.4,18
						c2-5.3,4.7-10.5,7.9-15.3c5.6,1.2,11.2,2.3,16.8,3.1c7.2,1.1,15,1.7,21.1-2.1c6.6-4.1,9.3-12.1,11.6-19.5
						c1.2-3.9,2.4-7.8,3.4-11.8C430.1,106,430.9,101.2,430.8,96.4z"/>
				</g>
				<path class="st2" d="M355.7,115.6c-1-0.3-1.9-0.5-2.9-0.8c-0.3-1-0.7-2-1-3c-0.2-0.6-1.3-0.9-1.7-0.3c-0.6,0.9-1.2,1.8-1.8,2.6
					c-1,0-2,0-3,0c-0.5,0-1.2,0.4-0.7,1c0.3,0.5,0.7,0.9,1.1,1.4c0.2,0.2,0.6,0.9,0.8,1.1c0,0.2-0.1,0.4-0.1,0.4
					c-0.1,0.3-0.2,0.7-0.3,1c-0.2,0.6-0.3,1.1-0.6,1.7c-0.3,0.7,0.8,1.1,1.4,0.9c0.9-0.3,1.9-0.7,2.8-1c0.8,0.6,1.6,1.1,2.4,1.7
					c0.1,0.1,0.2,0.1,0.3,0.1c0.5,0.2,1.2,0.1,1.2-0.6c0-0.6,0-1.2-0.1-1.8c0-0.3,0-1.1-0.1-1.5c0.3-0.1,1-0.7,1.2-0.9
					c0.5-0.3,0.9-0.7,1.4-1.1C356.7,116.4,356.2,115.7,355.7,115.6z"/>
				<path class="st2" d="M367.7,118.2c-1-0.3-1.9-0.5-2.9-0.8c-0.3-1-0.7-2-1-3c-0.2-0.6-1.3-0.9-1.7-0.3c-0.6,0.9-1.2,1.8-1.8,2.6
					c-1,0-2,0-3,0c-0.5,0-1.2,0.4-0.7,1c0.3,0.5,0.7,0.9,1.1,1.4c0.2,0.2,0.6,0.9,0.8,1.1c0,0.2-0.1,0.4-0.1,0.4
					c-0.1,0.3-0.2,0.7-0.3,1c-0.2,0.6-0.3,1.1-0.6,1.7c-0.3,0.7,0.8,1.1,1.4,0.9c0.9-0.3,1.9-0.7,2.8-1c0.8,0.6,1.6,1.1,2.4,1.7
					c0.1,0.1,0.2,0.1,0.3,0.1c0.5,0.2,1.2,0.1,1.2-0.6c0-0.6,0-1.2-0.1-1.8c0-0.3,0-1.1-0.1-1.5c0.3-0.1,1-0.7,1.2-0.9
					c0.5-0.3,0.9-0.7,1.4-1.1C368.7,119,368.2,118.3,367.7,118.2z"/>
				<path class="st2" d="M379.9,120.8c-1-0.3-1.9-0.5-2.9-0.8c-0.3-1-0.7-2-1-3c-0.2-0.6-1.3-0.9-1.7-0.3c-0.6,0.9-1.2,1.8-1.8,2.6
					c-1,0-2,0-3,0c-0.5,0-1.2,0.4-0.7,1c0.3,0.5,0.7,0.9,1.1,1.4c0.2,0.2,0.6,0.9,0.8,1.1c0,0.2-0.1,0.4-0.1,0.4
					c-0.1,0.3-0.2,0.7-0.3,1c-0.2,0.6-0.3,1.1-0.6,1.7c-0.3,0.7,0.8,1.1,1.4,0.9c0.9-0.3,1.9-0.7,2.8-1c0.8,0.6,1.6,1.1,2.4,1.7
					c0.1,0.1,0.2,0.1,0.3,0.1c0.5,0.2,1.2,0.1,1.2-0.6c0-0.6,0-1.2-0.1-1.8c0-0.3,0-1.1-0.1-1.5c0.3-0.1,1-0.7,1.2-0.9
					c0.5-0.3,0.9-0.7,1.4-1.1C380.9,121.6,380.4,120.9,379.9,120.8z"/>
				<path class="st2" d="M392.1,123.4c-1-0.3-1.9-0.5-2.9-0.8c-0.3-1-0.7-2-1-3c-0.2-0.6-1.3-0.9-1.7-0.3c-0.6,0.9-1.2,1.8-1.8,2.6
					c-1,0-2,0-3,0c-0.5,0-1.2,0.4-0.7,1c0.3,0.5,0.7,0.9,1.1,1.4c0.2,0.2,0.6,0.9,0.8,1.1c0,0.2-0.1,0.4-0.1,0.4
					c-0.1,0.3-0.2,0.7-0.3,1c-0.2,0.6-0.3,1.1-0.6,1.7c-0.3,0.7,0.8,1.1,1.4,0.9c0.9-0.3,1.9-0.7,2.8-1c0.8,0.6,1.6,1.1,2.4,1.7
					c0.1,0,0.1,0.1,0.2,0.1c0.6,0.3,1.4,0.2,1.3-0.5c0-0.6,0-1.2-0.1-1.8c0-0.3,0-1.1-0.1-1.5c0.3-0.1,1-0.7,1.2-0.9
					c0.5-0.3,0.9-0.7,1.4-1.1C393.2,124.3,392.6,123.5,392.1,123.4z"/>
				<path class="st2" d="M404.8,127.1c-0.9-0.4-1.9-0.8-2.8-1.3c-0.2-1-0.4-2-0.6-3c-0.1-0.8-1.2-1.1-1.7-0.5
					c-0.7,0.8-1.4,1.5-2,2.3c-1-0.1-2.1-0.3-3.1-0.4c-0.6-0.1-1,0.5-0.7,1c0.3,0.5,0.6,1,0.9,1.5c0.2,0.3,0.4,0.6,0.5,0.9
					c0.1,0.1,0.1,0.2,0.1,0.3c-0.1,0.2-0.2,0.4-0.2,0.4c-0.2,0.3-0.3,0.7-0.5,1c-0.3,0.5-0.5,1.1-0.7,1.6c-0.3,0.6,0.7,1.1,1.2,1
					c0.6-0.1,1.1-0.2,1.8-0.4c0.2-0.1,0.9-0.1,1.3-0.2c0,0,0.1,0.1,0.1,0.1c0.2,0.3,0.5,0.5,0.8,0.7c0.3,0.3,0.6,0.5,0.9,0.8
					c0.2,0.7,1.7,0.9,1.8,0c0,0,0,0,0,0c0-0.1,0-0.1,0-0.2c0.1-1,0.2-2,0.3-3c0.9-0.5,1.8-1,2.8-1.5
					C405.4,128.1,405.4,127.4,404.8,127.1z"/>
				<g>
					<path class="st3" d="M415.6,92.5c-5.6-0.8-11.2-1.8-16.8-2.8c-2.8-0.5-5.5-1.1-8.3-1.6l-8.3-1.7l-8.3-1.8
						c-2.8-0.6-5.5-1.2-8.3-1.9c-5.5-1.3-11-2.7-16.5-4.3c5.6,0.8,11.2,1.8,16.8,2.8c2.8,0.5,5.5,1.1,8.3,1.6l8.3,1.7l8.3,1.8
						c2.8,0.6,5.5,1.2,8.3,1.9C404.6,89.5,410.2,90.9,415.6,92.5z"/>
				</g>
				<g>
					<path class="st3" d="M409.9,99.6c-5.8-0.8-11.5-1.8-17.3-2.9c-2.9-0.5-5.7-1.1-8.6-1.7l-8.6-1.8l-8.5-1.9
						c-2.8-0.7-5.7-1.3-8.5-2c-5.7-1.4-11.3-2.8-16.9-4.4c5.8,0.8,11.5,1.8,17.3,2.9c2.9,0.5,5.7,1.1,8.6,1.7l8.6,1.8l8.5,1.9
						c2.8,0.7,5.7,1.3,8.5,2C398.7,96.5,404.3,98,409.9,99.6z"/>
				</g>
				<g>
					<path class="st3" d="M352.3,96.9c4.1,0.5,8.1,1.1,12.2,1.8c2,0.3,4,0.8,6,1.1l6,1.2l6,1.3c2,0.5,4,0.9,6,1.4
						c4,1,7.9,2,11.8,3.3c-4.1-0.5-8.1-1.1-12.2-1.8c-2-0.3-4-0.8-6-1.1l-6-1.2l-6-1.3c-2-0.5-4-0.9-6-1.4
						C360.2,99.2,356.2,98.2,352.3,96.9z"/>
				</g>
				<g>
					<path class="st3" d="M369.2,75c2.6,0.2,5.2,0.5,7.7,0.9c2.5,0.4,5.1,0.9,7.6,1.4c2.5,0.5,5,1.1,7.5,1.8c2.5,0.7,5,1.4,7.4,2.4
						c-2.6-0.2-5.2-0.5-7.7-0.9c-2.5-0.4-5.1-0.9-7.6-1.4c-2.5-0.5-5-1.1-7.5-1.8C374.1,76.7,371.6,76,369.2,75z"/>
				</g>
			</g>
			<g>
				<g>
					<path class="st1" d="M374.6,234.8c-0.3-1.7-0.6-3.4-1-5c-0.6-2.7-1.2-5.5-2.9-7.8c-4-5.4-12.3-7.3-19.9-8.5
						c-20.1-3.1-42.2-4.3-62.5-2.5c-14.3,0.4-28.5,3.2-41.4,8.2c-3.5,1.3-7,2.8-9.4,5.3c-3.1,3.2-4,7.4-4.5,11.4
						c-2.2,17.2,0,34.7,6.5,51.2c1.1,2.8,2.4,5.6,5.4,7.2c2.5,1.4,5.6,1.5,8.6,1.6c13.9,0.4,27.9,0.3,41.8-0.1c0.1,0,0.3,0,0.5,0
						c2.1,3.8,2.3,8.5,4.3,12.1c0.3,0.6,0.9,1.3,1.6,1.1c0.4-0.1,0.6-0.5,0.8-0.8c1.9-3.9,5-9.2,6.8-13.2c9.3-0.6,19.9-1.3,25.3-1.8
						c5.8-0.6,11.5-1.3,17.3-2c6.6-0.9,13.6-2,18.3-5.7c5.9-4.7,6.8-12,6.9-18.7C377.3,256,376.5,245.3,374.6,234.8z"/>
				</g>
				<path class="st2" d="M284.7,275.2c-1-0.1-2-0.1-3-0.2c-0.5-0.9-1.1-1.8-1.6-2.7c-0.3-0.5-1.4-0.6-1.7,0c-0.4,1-0.8,2-1.2,3
					c-1,0.2-2,0.4-2.9,0.7c-0.5,0.1-1.1,0.7-0.5,1.2c0.4,0.4,0.9,0.8,1.4,1.2c0.2,0.2,0.8,0.7,1.1,0.9c0,0.2,0,0.4,0,0.4
					c0,0.3,0,0.7-0.1,1.1c0,0.6-0.1,1.2-0.2,1.8c-0.1,0.8,1.1,0.9,1.5,0.6c0.8-0.5,1.7-1,2.5-1.6c0.9,0.4,1.8,0.8,2.7,1.1
					c0.1,0,0.2,0.1,0.3,0.1c0.6,0.1,1.2-0.2,1.1-0.8c-0.1-0.6-0.3-1.2-0.4-1.7c-0.1-0.2-0.2-1.1-0.4-1.4c0.3-0.2,0.8-0.9,1-1.1
					c0.4-0.4,0.8-0.9,1.2-1.4C285.9,275.7,285.3,275.2,284.7,275.2z"/>
				<path class="st2" d="M297,275.2c-1-0.1-2-0.1-3-0.2c-0.5-0.9-1.1-1.8-1.6-2.7c-0.3-0.5-1.4-0.6-1.7,0c-0.4,1-0.8,2-1.2,3
					c-1,0.2-2,0.4-2.9,0.7c-0.5,0.1-1.1,0.7-0.5,1.2c0.4,0.4,0.9,0.8,1.4,1.2c0.2,0.2,0.8,0.7,1.1,0.9c0,0.2,0,0.4,0,0.4
					c0,0.3,0,0.7-0.1,1.1c0,0.6-0.1,1.2-0.2,1.8c-0.1,0.8,1.1,0.9,1.5,0.6c0.8-0.5,1.7-1,2.5-1.6c0.9,0.4,1.8,0.8,2.7,1.1
					c0.1,0,0.2,0.1,0.3,0.1c0.6,0.1,1.2-0.2,1.1-0.8c-0.1-0.6-0.3-1.2-0.4-1.7c-0.1-0.2-0.2-1.1-0.4-1.4c0.3-0.2,0.8-0.9,1-1.1
					c0.4-0.4,0.8-0.9,1.2-1.4C298.2,275.7,297.5,275.2,297,275.2z"/>
				<path class="st2" d="M309.5,275.2c-1-0.1-2-0.1-3-0.2c-0.5-0.9-1.1-1.8-1.6-2.7c-0.3-0.5-1.4-0.6-1.7,0c-0.4,1-0.8,2-1.2,3
					c-1,0.2-2,0.4-2.9,0.7c-0.5,0.1-1.1,0.7-0.5,1.2c0.4,0.4,0.9,0.8,1.4,1.2c0.2,0.2,0.8,0.7,1.1,0.9c0,0.2,0,0.4,0,0.4
					c0,0.3,0,0.7-0.1,1.1c0,0.6-0.1,1.2-0.2,1.8c-0.1,0.8,1.1,0.9,1.5,0.6c0.8-0.5,1.7-1,2.5-1.6c0.9,0.4,1.8,0.8,2.7,1.1
					c0.1,0.1,0.2,0.1,0.3,0.1c0.6,0.1,1.2-0.2,1.1-0.8c-0.1-0.6-0.3-1.2-0.4-1.7c-0.1-0.2-0.2-1.1-0.4-1.4c0.3-0.2,0.8-0.9,1-1.1
					c0.4-0.4,0.8-0.9,1.2-1.4C310.7,275.7,310,275.2,309.5,275.2z"/>
				<path class="st2" d="M322,275.2c-1-0.1-2-0.1-3-0.2c-0.5-0.9-1.1-1.8-1.6-2.7c-0.3-0.5-1.4-0.6-1.7,0c-0.4,1-0.8,2-1.2,3
					c-1,0.2-2,0.4-2.9,0.7c-0.5,0.1-1.1,0.7-0.5,1.2c0.4,0.4,0.9,0.8,1.4,1.2c0.2,0.2,0.8,0.7,1.1,0.9c0,0.2,0,0.4,0,0.4
					c0,0.3,0,0.7-0.1,1.1c0,0.6-0.1,1.2-0.2,1.8c-0.1,0.8,1.1,0.9,1.5,0.6c0.8-0.5,1.7-1,2.5-1.6c0.9,0.4,1.8,0.8,2.7,1.1
					c0.1,0,0.1,0,0.2,0.1c0.6,0.1,1.4-0.1,1.2-0.8c-0.1-0.6-0.3-1.2-0.4-1.7c-0.1-0.2-0.2-1.1-0.4-1.4c0.3-0.2,0.8-0.9,1-1.1
					c0.4-0.4,0.8-0.9,1.2-1.4C323.3,275.7,322.6,275.2,322,275.2z"/>
				<path class="st2" d="M335.2,276c-1-0.2-2-0.4-3-0.6c-0.4-1-0.8-1.9-1.2-2.8c-0.3-0.7-1.4-0.8-1.8-0.1c-0.5,0.9-1,1.8-1.5,2.7
					c-1,0.1-2.1,0.2-3.1,0.3c-0.6,0-0.9,0.7-0.5,1.2c0.4,0.4,0.8,0.9,1.2,1.3c0.2,0.2,0.5,0.5,0.7,0.8c0.1,0.1,0.1,0.1,0.2,0.2
					c0,0.2-0.1,0.4-0.1,0.5c-0.1,0.3-0.1,0.7-0.2,1.1c-0.1,0.6-0.2,1.2-0.4,1.7c-0.1,0.6,0.9,0.9,1.4,0.7c0.5-0.2,1.1-0.5,1.6-0.7
					c0.2-0.1,0.9-0.3,1.2-0.5c0,0,0.1,0,0.1,0.1c0.3,0.2,0.6,0.4,0.9,0.5c0.3,0.2,0.7,0.4,1,0.6c0.3,0.6,1.5,0.5,1.8-0.1
					c0.1-0.2,0.1-0.3,0-0.5c-0.1-1-0.2-1.9-0.3-2.9c0.8-0.7,1.6-1.4,2.4-2.1C336,276.8,335.9,276.2,335.2,276z"/>
				<g>
					<path class="st3" d="M256.7,227.2c7.5-0.4,15-0.6,22.5-0.8c3.8-0.1,7.5-0.1,11.3-0.1l11.3,0l11.3,0c3.8,0,7.5,0,11.3,0.1
						c7.5,0.1,15,0.3,22.5,0.8c-7.5,0.4-15,0.6-22.5,0.8c-3.8,0.1-7.5,0.1-11.3,0.1l-11.3,0l-11.3,0c-3.8,0-7.5,0-11.3-0.1
						C271.7,227.8,264.2,227.6,256.7,227.2z"/>
				</g>
				<g>
					<path class="st3" d="M264.3,233.4c6.4-0.4,12.8-0.6,19.2-0.8c3.2-0.1,6.4-0.1,9.6-0.1l9.6,0l9.6,0c3.2,0,6.4,0,9.6,0.1
						c6.4,0.1,12.8,0.3,19.2,0.8c-6.4,0.4-12.8,0.6-19.2,0.8c-3.2,0.1-6.4,0.1-9.6,0.1l-9.6,0l-9.6-0.1c-3.2,0-6.4,0-9.6-0.1
						C277.1,234,270.7,233.8,264.3,233.4z"/>
				</g>
				<g>
					<path class="st3" d="M260,244.5c7.3-0.4,14.7-0.6,22-0.8c3.7-0.1,7.3-0.1,11-0.1l11,0l11,0c3.7,0,7.3,0,11,0.1
						c7.3,0.1,14.7,0.3,22,0.8c-7.3,0.4-14.7,0.6-22,0.8c-3.7,0.1-7.3,0.1-11,0.1l-11,0l-11-0.1c-3.7,0-7.3,0-11-0.1
						C274.7,245.1,267.3,244.9,260,244.5z"/>
				</g>
				<g>
					<path class="st3" d="M259.7,254.8c7.5-0.4,15.1-0.6,22.6-0.8c3.8-0.1,7.5-0.1,11.3-0.1l11.3,0l11.3,0c3.8,0,7.5,0,11.3,0.1
						c7.5,0.1,15.1,0.3,22.6,0.8c-7.5,0.4-15.1,0.6-22.6,0.8c-3.8,0.1-7.5,0.1-11.3,0.1l-11.3,0l-11.3,0c-3.8,0-7.5,0-11.3-0.1
						C274.8,255.4,267.2,255.2,259.7,254.8z"/>
				</g>
				<g>
					<path class="st3" d="M292.2,260.5c2.8-0.4,5.6-0.6,8.4-0.8c2.8-0.1,5.6-0.2,8.4-0.2c2.8,0,5.6,0,8.4,0.2
						c2.8,0.1,5.6,0.3,8.4,0.8c-2.8,0.4-5.6,0.6-8.4,0.8c-2.8,0.1-5.6,0.2-8.4,0.2c-2.8,0-5.6,0-8.4-0.2
						C297.8,261.1,295,260.9,292.2,260.5z"/>
				</g>
			</g>
			<g>
				<g>
					<path class="st4" d="M509.3,287.7c1.6-7.5,2.8-15.4,0.3-22.6c-4.4-12.4-17.9-18.6-30.2-23.3c-15.5-5.9-31-11.5-46.6-16.9
						c-11-3.7-21.9-7.3-33-10.8l0.4,2.1c-6.3,0.6-12.1,3.2-17.3,6.9c-5.2,3.9-9.7,9-13.1,14.6c-3.8,6.2-6.3,13-8.3,20.1
						c-1.7,5.9-3,11.9-4.2,17.9c-0.8,4.1-1.7,8.3-2.2,12.5l0,0c-0.8,7.5-0.5,15,3.1,21.5c5.2,9.5,16,14.4,26.2,18.3
						c8,3,16,5.8,24.2,8.2c0.6,8.6,0.3,17.3-1,25.7c6.5-6.4,12.4-13.5,17.7-21c11.7,3,23.6,5.5,35.5,7.4c8.5,1.3,18.2,2.2,25-3.2
						c3.7-2.9,5.9-7.2,8-11.4C500.7,318.9,505.9,303.5,509.3,287.7z"/>
				</g>
				<path class="st2" d="M397.2,297.2c-1.4-0.6-2.8-1.1-4.2-1.6c-0.4-1.5-0.8-3.1-1.1-4.6c-0.3-0.9-1.8-1.5-2.5-0.7
					c-1,1.3-2,2.5-3,3.7c-1.5-0.1-3-0.2-4.5-0.3c-0.8-0.1-1.8,0.5-1.2,1.5c0.5,0.7,1,1.5,1.4,2.2c0.2,0.3,0.8,1.3,1.1,1.8
					c-0.1,0.2-0.2,0.5-0.2,0.6c-0.2,0.5-0.4,1-0.6,1.5c-0.3,0.8-0.6,1.6-1,2.5c-0.5,1.1,1.1,1.8,2,1.6c1.4-0.4,2.9-0.8,4.3-1.2
					c1.1,0.9,2.2,1.9,3.4,2.8c0.1,0.1,0.2,0.1,0.3,0.2c0.8,0.5,2,0.4,2.1-0.6c0-0.9,0.1-1.8,0.1-2.7c0-0.4,0.1-1.7,0.1-2.2
					c0.5-0.2,1.6-1,1.9-1.2c0.7-0.5,1.5-0.9,2.2-1.4C398.6,298.5,397.9,297.4,397.2,297.2z"/>
				<path class="st2" d="M414.8,302.4c-1.4-0.6-2.8-1.1-4.2-1.6c-0.4-1.5-0.8-3.1-1.1-4.6c-0.3-0.9-1.8-1.5-2.5-0.7
					c-1,1.3-2,2.5-3,3.7c-1.5-0.1-3-0.2-4.5-0.3c-0.8-0.1-1.8,0.5-1.2,1.5c0.5,0.7,1,1.5,1.4,2.2c0.2,0.3,0.8,1.3,1.1,1.8
					c-0.1,0.2-0.2,0.5-0.2,0.6c-0.2,0.5-0.4,1-0.6,1.5c-0.3,0.8-0.6,1.6-1,2.5c-0.5,1.1,1.1,1.8,2,1.6c1.4-0.4,2.9-0.8,4.3-1.2
					c1.1,0.9,2.2,1.9,3.4,2.8c0.1,0.1,0.2,0.1,0.3,0.2c0.8,0.5,2,0.4,2.1-0.6c0-0.9,0.1-1.8,0.1-2.7c0-0.4,0.1-1.7,0.1-2.2
					c0.5-0.2,1.6-1,1.9-1.2c0.7-0.5,1.5-0.9,2.2-1.4C416.3,303.8,415.6,302.7,414.8,302.4z"/>
				<path class="st2" d="M432.8,307.8c-1.4-0.6-2.8-1.1-4.2-1.6c-0.4-1.5-0.8-3.1-1.1-4.6c-0.3-0.9-1.8-1.5-2.5-0.7
					c-1,1.3-2,2.5-3,3.7c-1.5-0.1-3-0.2-4.5-0.3c-0.8-0.1-1.8,0.5-1.2,1.5c0.5,0.7,1,1.5,1.4,2.2c0.2,0.3,0.8,1.3,1.1,1.8
					c-0.1,0.2-0.2,0.5-0.2,0.6c-0.2,0.5-0.4,1-0.6,1.5c-0.3,0.8-0.6,1.6-1,2.5c-0.5,1.1,1.1,1.8,2,1.6c1.4-0.4,2.9-0.8,4.3-1.2
					c1.1,0.9,2.2,1.9,3.4,2.8c0.1,0.1,0.2,0.1,0.3,0.2c0.8,0.5,2,0.4,2.1-0.6c0-0.9,0.1-1.8,0.1-2.7c0-0.4,0.1-1.7,0.1-2.2
					c0.5-0.2,1.6-1,1.9-1.2c0.7-0.5,1.5-0.9,2.2-1.4C434.3,309.2,433.5,308.1,432.8,307.8z"/>
				<path class="st2" d="M450.8,313.1c-1.4-0.6-2.8-1.1-4.2-1.6c-0.4-1.5-0.8-3.1-1.1-4.6c-0.3-0.9-1.8-1.5-2.5-0.7
					c-1,1.3-2,2.5-3,3.7c-1.5-0.1-3-0.2-4.5-0.3c-0.8-0.1-1.8,0.5-1.2,1.5c0.5,0.7,1,1.5,1.4,2.2c0.2,0.3,0.8,1.3,1.1,1.8
					c-0.1,0.2-0.2,0.5-0.2,0.6c-0.2,0.5-0.4,1-0.6,1.5c-0.3,0.8-0.6,1.6-1,2.5c-0.5,1.1,1.1,1.8,2,1.6c1.4-0.4,2.9-0.8,4.3-1.2
					c1.1,0.9,2.2,1.9,3.4,2.8c0.1,0.1,0.3,0.2,0.4,0.3c0.8,0.4,1.8,0.2,1.9-0.7c0-0.9,0.1-1.8,0.1-2.7c0-0.4,0.1-1.7,0.1-2.2
					c0.5-0.2,1.6-1,1.9-1.2c0.7-0.5,1.5-0.9,2.2-1.4C452.3,314.5,451.6,313.4,450.8,313.1z"/>
				<path class="st2" d="M469.3,322c0.9-0.3,0.9-1.4,0-1.9c-1.4-0.7-2.7-1.5-4.1-2.2c-0.2-1.5-0.3-3-0.5-4.6
					c-0.1-1.2-1.7-1.8-2.5-0.9c-1.1,1.1-2.2,2.2-3.3,3.2c-1.5-0.3-3-0.6-4.5-0.9c-0.9-0.2-1.6,0.6-1.2,1.5c0.4,0.8,0.8,1.6,1.2,2.4
					c0.2,0.5,0.5,1,0.7,1.4c0.1,0.1,0.1,0.3,0.2,0.4c-0.1,0.2-0.3,0.6-0.3,0.6c-0.4,0.4-0.5,1-0.8,1.4c-0.5,0.8-0.8,1.6-1.3,2.3
					c-0.5,0.8,0.9,1.7,1.6,1.6c0.9-0.1,1.7-0.2,2.7-0.3c0.4-0.1,1.4-0.1,1.9-0.2c0,0,0.1,0.1,0.1,0.1c0.3,0.5,0.7,0.8,1.1,1.2
					c0.4,0.4,0.8,0.9,1.2,1.3c0.1,1.1,2.5,1.5,2.7,0.2c0,0,0,0,0,0c0-0.1,0-0.1,0-0.2c0.2-1.5,0.5-3,0.8-4.5
					C466.4,323.4,467.8,322.7,469.3,322z"/>
				<g>
					<path class="st3" d="M400.8,238.7c7.1,1.5,14.2,3.3,21.2,5.1c3.5,0.9,7,1.9,10.5,2.9l10.4,3l10.4,3.2c3.5,1.1,6.9,2.1,10.4,3.3
						c6.9,2.3,13.7,4.6,20.5,7.3c-7.1-1.5-14.2-3.3-21.2-5.1c-3.5-0.9-7-1.9-10.5-2.9l-10.4-3l-10.4-3.2c-3.5-1.1-6.9-2.1-10.4-3.3
						C414.4,243.8,407.6,241.3,400.8,238.7z"/>
				</g>
				<g>
					<path class="st3" d="M394,251.5c8.2,1.9,16.4,3.9,24.5,6.1c4.1,1.1,8.1,2.3,12.1,3.4l12.1,3.5l12.1,3.7c4,1.3,8,2.5,12,3.8
						c8,2.6,16,5.3,23.8,8.3c-8.2-1.9-16.4-3.9-24.5-6.1c-4.1-1.1-8.1-2.3-12.1-3.4l-12.1-3.5l-12.1-3.7c-4-1.3-8-2.5-12-3.8
						C409.8,257.2,401.8,254.5,394,251.5z"/>
				</g>
				<g>
					<path class="st3" d="M406.9,269.4c4.1,0.6,8.1,1.4,12.1,2.4s7.9,2.1,11.9,3.3c4,1.2,7.8,2.4,11.7,3.8c3.9,1.4,7.7,2.8,11.5,4.6
						c-4.1-0.6-8.1-1.4-12.1-2.4s-7.9-2.1-11.9-3.3c-4-1.2-7.8-2.4-11.7-3.8C414.5,272.6,410.6,271.1,406.9,269.4z"/>
				</g>
				<g>
					<path class="st3" d="M387.2,272.8c7.8,1.7,15.6,3.7,23.3,5.8c3.9,1,7.7,2.1,11.6,3.2l11.5,3.4l11.5,3.5
						c3.8,1.2,7.6,2.4,11.5,3.7c7.6,2.5,15.2,5.1,22.7,8c-7.8-1.7-15.6-3.7-23.3-5.8c-3.9-1-7.7-2.1-11.6-3.2l-11.5-3.4l-11.5-3.5
						c-3.8-1.2-7.6-2.4-11.5-3.7C402.2,278.3,394.7,275.7,387.2,272.8z"/>
				</g>
			</g>
			<g>
				<g>
					<path class="st1" d="M453.9,175.5c-0.1-5.1-0.2-10.5-2.7-15c-4.1-7.4-13.1-10.4-21.4-12c-17.3-3.4-35-3.9-52.6-3.1
						c-0.1,0-0.2,0-0.3,0c-10.8,0.5-21.5,1.4-32.3,2.7c-6.9,0.9-14,2-19.6,6c-5.6,4-7,10.3-6.2,18.1c-1.1,15.1-0.7,27.4,8.8,38.6
						c0.8,1,1.7,1.9,2.6,2.7c5.3,4.8,12.3,7.3,19.1,9.4c11.2,3.4,22.6,6,34.2,7.7c1.7,9.3,4.3,15.4,8.9,23.7
						c0.2,0.3,0.4,0.7,0.7,0.7c0.5,0.1,0.9-0.5,1.1-1.1c2.6-7.1,5.3-14.3,7.9-21.4c2.5,0.2,4.3,0.4,4.8,0.4c10,0.5,20.6,0.2,29.1-5
						c8.3-5.1,13.5-14.2,15.8-23.6C454.2,195.1,454,185.2,453.9,175.5z"/>
				</g>
				<path class="st2" d="M376.4,207.9c-1-0.1-2-0.1-3-0.2c-0.5-0.9-1.1-1.8-1.6-2.7c-0.3-0.5-1.4-0.6-1.7,0c-0.4,1-0.8,2-1.2,3
					c-1,0.2-2,0.4-2.9,0.7c-0.5,0.1-1.1,0.7-0.5,1.2c0.4,0.4,0.9,0.8,1.4,1.2c0.2,0.2,0.8,0.7,1.1,0.9c0,0.2,0,0.4,0,0.4
					c0,0.3,0,0.7-0.1,1.1c0,0.6-0.1,1.2-0.2,1.8c-0.1,0.8,1.1,0.9,1.5,0.6c0.8-0.5,1.7-1,2.5-1.6c0.9,0.4,1.8,0.8,2.7,1.1
					c0.1,0,0.1,0,0.2,0.1c0.6,0.1,1.4-0.1,1.2-0.8c-0.1-0.6-0.3-1.2-0.4-1.7c-0.1-0.2-0.2-1.1-0.4-1.4c0.3-0.2,0.8-0.9,1-1.1
					c0.4-0.4,0.8-0.9,1.2-1.4C377.6,208.5,376.9,207.9,376.4,207.9z"/>
				<path class="st2" d="M388.7,207.9c-1-0.1-2-0.1-3-0.2c-0.5-0.9-1.1-1.8-1.6-2.7c-0.3-0.5-1.4-0.6-1.7,0c-0.4,1-0.8,2-1.2,3
					c-1,0.2-2,0.4-2.9,0.7c-0.5,0.1-1.1,0.7-0.5,1.2c0.4,0.4,0.9,0.8,1.4,1.2c0.2,0.2,0.8,0.7,1.1,0.9c0,0.2,0,0.4,0,0.4
					c0,0.3,0,0.7-0.1,1.1c0,0.6-0.1,1.2-0.2,1.8c-0.1,0.8,1.1,0.9,1.5,0.6c0.8-0.5,1.7-1,2.5-1.6c0.9,0.4,1.8,0.8,2.7,1.1
					c0.1,0,0.1,0,0.2,0.1c0.6,0.1,1.4-0.1,1.2-0.8c-0.1-0.6-0.3-1.2-0.4-1.7c-0.1-0.2-0.2-1.1-0.4-1.4c0.3-0.2,0.8-0.9,1-1.1
					c0.4-0.4,0.8-0.9,1.2-1.4C389.9,208.5,389.2,207.9,388.7,207.9z"/>
				<path class="st2" d="M401.2,207.9c-1-0.1-2-0.1-3-0.2c-0.5-0.9-1.1-1.8-1.6-2.7c-0.3-0.5-1.4-0.6-1.7,0c-0.4,1-0.8,2-1.2,3
					c-1,0.2-2,0.4-2.9,0.7c-0.5,0.1-1.1,0.7-0.5,1.2c0.4,0.4,0.9,0.8,1.4,1.2c0.2,0.2,0.8,0.7,1.1,0.9c0,0.2,0,0.4,0,0.4
					c0,0.3,0,0.7-0.1,1.1c0,0.6-0.1,1.2-0.2,1.8c-0.1,0.8,1.1,0.9,1.5,0.6c0.8-0.5,1.7-1,2.5-1.6c0.9,0.4,1.8,0.8,2.7,1.1
					c0.1,0,0.1,0,0.2,0.1c0.6,0.1,1.4-0.1,1.2-0.8c-0.1-0.6-0.3-1.2-0.4-1.7c-0.1-0.2-0.2-1.1-0.4-1.4c0.3-0.2,0.8-0.9,1-1.1
					c0.4-0.4,0.8-0.9,1.2-1.4C402.4,208.5,401.7,207.9,401.2,207.9z"/>
				<path class="st2" d="M413.7,207.8c-1-0.1-2-0.1-3-0.2c-0.5-0.9-1.1-1.8-1.6-2.7c-0.3-0.5-1.4-0.6-1.7,0c-0.4,1-0.8,2-1.2,3
					c-1,0.2-2,0.4-2.9,0.7c-0.5,0.1-1.1,0.7-0.5,1.2c0.4,0.4,0.9,0.8,1.4,1.2c0.2,0.2,0.8,0.7,1.1,0.9c0,0.2,0,0.4,0,0.4
					c0,0.3,0,0.7-0.1,1.1c0,0.6-0.1,1.2-0.2,1.8c-0.1,0.8,1.1,0.9,1.5,0.6c0.8-0.5,1.7-1,2.5-1.6c0.9,0.4,1.8,0.8,2.7,1.1
					c0.1,0,0.1,0,0.2,0.1c0.6,0.1,1.4-0.1,1.2-0.8c-0.1-0.6-0.3-1.2-0.4-1.7c-0.1-0.2-0.2-1.1-0.4-1.4c0.3-0.2,0.8-0.9,1-1.1
					c0.4-0.4,0.8-0.9,1.2-1.4C414.9,208.4,414.3,207.8,413.7,207.8z"/>
				<path class="st2" d="M426.9,208.8c-1-0.2-2-0.4-3-0.6c-0.4-1-0.8-1.9-1.2-2.8c-0.3-0.7-1.4-0.8-1.8-0.1c-0.5,0.9-1,1.8-1.5,2.7
					c-1,0.1-2.1,0.2-3.1,0.3c-0.6,0-0.9,0.7-0.5,1.2c0.4,0.4,0.8,0.9,1.2,1.3c0.2,0.2,0.5,0.5,0.7,0.8c0.1,0.1,0.1,0.1,0.2,0.2
					c0,0.2-0.1,0.4-0.1,0.5c-0.1,0.3-0.1,0.7-0.2,1.1c-0.1,0.6-0.2,1.2-0.4,1.7c-0.1,0.6,0.9,0.9,1.4,0.7c0.5-0.2,1.1-0.5,1.6-0.7
					c0.2-0.1,0.9-0.3,1.2-0.5c0,0,0.1,0,0.1,0.1c0.3,0.2,0.6,0.4,0.9,0.5c0.3,0.2,0.7,0.4,1,0.6c0.3,0.6,1.6,0.5,1.8-0.2
					c0.1-0.1,0.1-0.3,0-0.5c-0.1-1-0.2-1.9-0.3-2.9c0.8-0.7,1.6-1.4,2.4-2.1C427.7,209.6,427.5,208.9,426.9,208.8z"/>
				<g>
					<path class="st3" d="M369.3,170c5.5-0.4,11-0.6,16.5-0.8c2.8-0.1,5.5-0.1,8.3-0.1l8.3,0l8.3,0c2.8,0,5.5,0,8.3,0.1
						c5.5,0.1,11,0.3,16.5,0.8c-5.5,0.4-11,0.6-16.5,0.8c-2.8,0.1-5.5,0.1-8.3,0.1l-8.3,0l-8.3,0c-2.8,0-5.5,0-8.3-0.1
						C380.3,170.7,374.8,170.5,369.3,170z"/>
				</g>
				<g>
					<path class="st3" d="M370.4,178.7c5.6-0.4,11.1-0.6,16.6-0.8c2.8-0.1,5.6-0.1,8.3-0.1l8.3,0l8.3,0c2.8,0,5.6,0,8.3,0.1
						c5.6,0.1,11.1,0.3,16.6,0.8c-5.6,0.4-11.1,0.6-16.6,0.8c-2.8,0.1-5.6,0.1-8.3,0.1l-8.3,0l-8.3,0c-2.8,0-5.6,0-8.3-0.1
						C381.4,179.4,375.9,179.1,370.4,178.7z"/>
				</g>
				<g>
					<path class="st3" d="M379.1,189c3.8-0.4,7.5-0.6,11.3-0.8c1.9-0.1,3.8-0.1,5.6-0.1l5.6,0l5.6,0c1.9,0,3.8,0,5.6,0.1
						c3.8,0.1,7.5,0.3,11.3,0.8c-3.8,0.4-7.5,0.6-11.3,0.8c-1.9,0.1-3.8,0.1-5.6,0.1l-5.6,0l-5.6,0c-1.9,0-3.8,0-5.6-0.1
						C386.6,189.6,382.8,189.4,379.1,189z"/>
				</g>
			</g>
			<g>
				<g>
					<path class="st5" d="M239.9,244.5c-1.8-5.7-3.8-11.7-8.1-15.9c-7.1-7-18.2-7.2-28-6.3c-20.5,2-40.5,7.5-60,14.3
						c-0.1,0-0.3,0.1-0.4,0.1c-11.9,4.2-23.7,8.8-35.2,13.9c-7.4,3.3-15,7-19.9,13.4c-4.9,6.4-4.3,13.9-0.9,22.3
						c3.8,17.3,8.5,30.9,22.9,40.3c1.2,0.8,2.5,1.5,3.8,2.1c7.6,3.6,16.2,4.1,24.6,4.1c13.7,0.1,27.4-0.9,41-2.9
						c5,9.8,10.1,15.8,18,23.6c0.3,0.3,0.7,0.6,1.1,0.6c0.6-0.1,0.8-0.9,0.9-1.6c0.5-8.9,1.1-17.8,1.6-26.7c2.8-0.6,5-1,5.5-1.1
						c11.4-2.8,23.1-6.7,30.9-15.4c7.6-8.5,10.3-20.4,9.7-31.8C246.9,266.3,243.4,255.3,239.9,244.5z"/>
				</g>
				<path class="st2" d="M164,306.9c-1.2,0.3-2.3,0.5-3.4,0.8c-0.9-0.8-1.8-1.7-2.7-2.5c-0.6-0.5-1.8-0.2-1.9,0.6
					c-0.1,1.3-0.2,2.5-0.4,3.7c-1,0.6-2,1.2-3.1,1.7c-0.6,0.3-1,1.1-0.2,1.5c0.6,0.3,1.3,0.6,1.9,0.8c0.3,0.1,1.1,0.5,1.5,0.7
					c0,0.2,0.1,0.4,0.1,0.5c0.1,0.4,0.2,0.8,0.3,1.2c0.1,0.7,0.3,1.3,0.4,2.1c0.2,0.9,1.5,0.7,1.9,0.2c0.8-0.9,1.5-1.7,2.3-2.6
					c1.1,0.1,2.2,0.3,3.4,0.4c0.1,0,0.2,0,0.2,0c0.7,0,1.5-0.6,1.1-1.3c-0.4-0.6-0.7-1.2-1.1-1.8c-0.2-0.2-0.6-1.2-0.9-1.5
					c0.2-0.3,0.6-1.3,0.7-1.6c0.3-0.6,0.6-1.2,0.8-1.9C165.6,307.1,164.6,306.7,164,306.9z"/>
				<path class="st2" d="M177.8,302.8c-1.2,0.3-2.3,0.5-3.4,0.8c-0.9-0.8-1.8-1.7-2.7-2.5c-0.6-0.5-1.8-0.2-1.9,0.6
					c-0.1,1.3-0.2,2.5-0.4,3.7c-1,0.6-2,1.2-3.1,1.7c-0.6,0.3-1,1.1-0.2,1.5c0.6,0.3,1.3,0.6,1.9,0.8c0.3,0.1,1.1,0.5,1.5,0.7
					c0,0.2,0.1,0.4,0.1,0.5c0.1,0.4,0.2,0.8,0.3,1.2c0.1,0.7,0.3,1.3,0.4,2.1c0.2,0.9,1.5,0.7,1.9,0.2c0.8-0.9,1.5-1.7,2.3-2.6
					c1.1,0.1,2.2,0.3,3.4,0.4c0.1,0,0.2,0,0.2,0c0.7,0,1.5-0.6,1.1-1.3c-0.4-0.6-0.7-1.2-1.1-1.8c-0.2-0.2-0.6-1.2-0.9-1.5
					c0.2-0.3,0.6-1.3,0.7-1.6c0.3-0.6,0.6-1.2,0.8-1.9C179.3,303,178.4,302.6,177.8,302.8z"/>
				<path class="st2" d="M191.8,298.5c-1.2,0.3-2.3,0.5-3.4,0.8c-0.9-0.8-1.8-1.7-2.7-2.5c-0.6-0.5-1.8-0.2-1.9,0.6
					c-0.1,1.3-0.2,2.5-0.4,3.7c-1,0.6-2,1.2-3.1,1.7c-0.6,0.3-1,1.1-0.2,1.5c0.6,0.3,1.3,0.6,1.9,0.8c0.3,0.1,1.1,0.5,1.5,0.7
					c0,0.2,0.1,0.4,0.1,0.5c0.1,0.4,0.2,0.8,0.3,1.2c0.1,0.7,0.3,1.3,0.4,2.1c0.2,0.9,1.5,0.7,1.9,0.2c0.8-0.9,1.5-1.7,2.3-2.6
					c1.1,0.1,2.2,0.3,3.4,0.4c0.1,0,0.2,0,0.3,0c0.7,0,1.5-0.6,1.1-1.3c-0.4-0.6-0.7-1.2-1.1-1.8c-0.2-0.2-0.6-1.2-0.9-1.5
					c0.2-0.3,0.6-1.3,0.7-1.6c0.3-0.6,0.6-1.2,0.8-1.9C193.3,298.8,192.4,298.4,191.8,298.5z"/>
				<path class="st2" d="M205.8,294.3c-1.2,0.3-2.3,0.5-3.4,0.8c-0.9-0.8-1.8-1.7-2.7-2.5c-0.6-0.5-1.8-0.2-1.9,0.6
					c-0.1,1.3-0.2,2.5-0.4,3.7c-1,0.6-2,1.2-3.1,1.7c-0.6,0.3-1,1.1-0.2,1.5c0.6,0.3,1.3,0.6,1.9,0.8c0.3,0.1,1.1,0.5,1.5,0.7
					c0,0.2,0.1,0.4,0.1,0.5c0.1,0.4,0.2,0.8,0.3,1.2c0.1,0.7,0.3,1.3,0.4,2.1c0.2,0.9,1.5,0.7,1.9,0.2c0.8-0.9,1.5-1.7,2.3-2.6
					c1.1,0.1,2.2,0.3,3.4,0.4c0.1,0,0.2,0,0.3,0c0.7,0,1.5-0.6,1.1-1.3c-0.4-0.6-0.7-1.2-1.1-1.8c-0.2-0.2-0.6-1.2-0.9-1.5
					c0.2-0.3,0.6-1.3,0.7-1.6c0.3-0.6,0.6-1.2,0.8-1.9C207.4,294.5,206.4,294.1,205.8,294.3z"/>
				<path class="st2" d="M220.8,290.9c-1.2,0.1-2.4,0.2-3.6,0.3c-0.8-0.9-1.5-1.8-2.3-2.8c-0.6-0.7-1.8-0.4-2,0.5
					c-0.3,1.2-0.5,2.4-0.8,3.5c-1.1,0.4-2.3,0.9-3.3,1.4c-0.7,0.3-0.8,1.1-0.2,1.5c0.6,0.4,1.2,0.7,1.8,1.1c0.4,0.2,0.7,0.4,1.1,0.6
					c0.1,0.1,0.2,0.1,0.3,0.2c0,0.2,0.1,0.5,0.1,0.5c0,0.4,0.1,0.9,0.1,1.3c0,0.7,0.1,1.4,0.2,2.1c0,0.8,1.3,0.7,1.8,0.4
					c0.5-0.4,1-0.9,1.6-1.4c0.2-0.2,0.8-0.7,1.2-1c0,0,0.1,0,0.1,0c0.4,0.2,0.8,0.2,1.2,0.3c0.5,0.1,0.9,0.2,1.3,0.3
					c0.5,0.6,1.9,0,1.9-0.8c0-0.2,0-0.4-0.2-0.5c-0.5-1-0.9-2.1-1.3-3.1c0.7-1,1.3-2.1,2-3.1C222,291.5,221.6,290.8,220.8,290.9z"/>
				<g>
					<path class="st3" d="M143.3,266.9c6-2.3,12.1-4.4,18.2-6.4c3.1-1,6.1-2,9.2-2.9l9.2-2.8l9.3-2.7c3.1-0.9,6.2-1.8,9.3-2.6
						c6.2-1.7,12.4-3.3,18.8-4.7c-6,2.3-12.1,4.4-18.2,6.4c-3.1,1-6.1,2-9.2,2.9l-9.2,2.8l-9.3,2.7c-3.1,0.9-6.2,1.8-9.3,2.6
						C155.8,263.9,149.6,265.5,143.3,266.9z"/>
				</g>
				<g>
					<path class="st3" d="M147.4,276.3c6.1-2.3,12.2-4.4,18.3-6.5c3.1-1,6.2-2,9.3-3l9.3-2.9l9.3-2.7c3.1-0.9,6.2-1.8,9.4-2.6
						c6.3-1.7,12.5-3.4,18.9-4.7c-6.1,2.3-12.2,4.4-18.3,6.5c-3.1,1-6.2,2-9.3,3l-9.3,2.9l-9.3,2.7c-3.1,0.9-6.2,1.8-9.4,2.6
						C160,273.2,153.8,274.8,147.4,276.3z"/>
				</g>
				<g>
					<path class="st3" d="M160.6,284.9c4.1-1.7,8.2-3.2,12.4-4.7c2.1-0.7,4.2-1.4,6.3-2.1l6.3-2l6.3-1.9c2.1-0.6,4.2-1.2,6.4-1.7
						c4.3-1.1,8.6-2.2,12.9-2.9c-4.1,1.7-8.2,3.2-12.4,4.7c-2.1,0.7-4.2,1.4-6.3,2.1l-6.3,2l-6.3,1.9c-2.1,0.6-4.2,1.2-6.4,1.7
						C169.3,283,165,284.1,160.6,284.9z"/>
				</g>
			</g>
			<g>
				<g>
					<path class="st6" d="M172.3,36.3c-1.9-6.1-4-12.5-8.6-17.1c-7.5-7.5-19.4-7.8-30-6.9c-22,2.1-43.4,7.8-64.3,14.9
						c-0.1,0-0.3,0.1-0.4,0.1C56.4,31.8,43.7,36.6,31.3,42c-7.9,3.5-16.1,7.4-21.4,14.2S5.2,71.1,8.8,80.1
						c4,18.5,8.9,33.1,24.2,43.2c1.3,0.9,2.7,1.7,4.1,2.3c8.1,3.9,17.3,4.5,26.3,4.5c14.7,0.2,29.3-0.8,43.9-2.8
						c5.3,10.5,10.7,17,19.1,25.3c0.3,0.3,0.7,0.7,1.1,0.6c0.7-0.1,0.9-1,1-1.7c0.6-9.5,1.3-19,1.9-28.5c3-0.6,5.4-1,5.9-1.2
						c12.2-3,24.8-7,33.2-16.3c8.2-9,11.2-21.8,10.6-34C179.6,59.8,176,48,172.3,36.3z"/>
				</g>
				<path class="st2" d="M90.7,102.7c-1.2,0.3-2.4,0.5-3.7,0.8c-0.9-0.9-1.9-1.8-2.9-2.7c-0.6-0.5-1.9-0.2-2,0.7
					c-0.1,1.3-0.2,2.7-0.4,4c-1.1,0.6-2.2,1.2-3.3,1.8c-0.6,0.3-1,1.2-0.2,1.6c0.7,0.3,1.4,0.6,2,0.9c0.3,0.1,1.2,0.6,1.6,0.7
					c0,0.2,0.1,0.4,0.2,0.5c0.1,0.4,0.2,0.9,0.3,1.3c0.1,0.7,0.3,1.4,0.4,2.2c0.2,1,1.6,0.7,2.1,0.2c0.8-0.9,1.7-1.9,2.5-2.8
					c1.2,0.2,2.4,0.3,3.6,0.4c0.1,0,0.2,0,0.3,0c0.8,0,1.6-0.6,1.2-1.4c-0.4-0.6-0.8-1.3-1.1-1.9c-0.2-0.3-0.7-1.2-0.9-1.6
					c0.2-0.3,0.7-1.4,0.8-1.7c0.3-0.7,0.6-1.3,0.9-2C92.4,102.9,91.3,102.5,90.7,102.7z"/>
				<path class="st2" d="M105.4,98.3c-1.2,0.3-2.4,0.5-3.7,0.8c-0.9-0.9-1.9-1.8-2.9-2.7c-0.6-0.5-1.9-0.2-2,0.7
					c-0.1,1.3-0.2,2.7-0.4,4c-1.1,0.6-2.2,1.2-3.3,1.8c-0.6,0.3-1,1.2-0.2,1.6c0.7,0.3,1.4,0.6,2,0.9c0.3,0.1,1.2,0.6,1.6,0.7
					c0,0.2,0.1,0.4,0.2,0.5c0.1,0.4,0.2,0.9,0.3,1.3c0.1,0.7,0.3,1.4,0.4,2.2c0.2,1,1.6,0.7,2.1,0.2c0.8-0.9,1.7-1.9,2.5-2.8
					c1.2,0.2,2.4,0.3,3.6,0.4c0.1,0,0.2,0,0.3,0c0.8,0,1.6-0.6,1.2-1.4c-0.4-0.6-0.8-1.3-1.1-1.9c-0.2-0.3-0.7-1.2-0.9-1.6
					c0.2-0.3,0.7-1.4,0.8-1.7c0.3-0.7,0.6-1.3,0.9-2C107.1,98.6,106.1,98.1,105.4,98.3z"/>
				<path class="st2" d="M120.5,93.9c-1.2,0.3-2.4,0.5-3.7,0.8c-0.9-0.9-1.9-1.8-2.9-2.7c-0.6-0.5-1.9-0.2-2,0.7
					c-0.1,1.3-0.2,2.7-0.4,4c-1.1,0.6-2.2,1.2-3.3,1.8c-0.6,0.3-1,1.2-0.2,1.6c0.7,0.3,1.4,0.6,2,0.9c0.3,0.1,1.2,0.6,1.6,0.7
					c0,0.2,0.1,0.4,0.2,0.5c0.1,0.4,0.2,0.9,0.3,1.3c0.1,0.7,0.3,1.4,0.4,2.2c0.2,1,1.6,0.7,2.1,0.2c0.8-0.9,1.7-1.9,2.5-2.8
					c1.2,0.2,2.4,0.3,3.6,0.4c0.1,0,0.2,0,0.3,0c0.8,0,1.6-0.6,1.2-1.4c-0.4-0.6-0.8-1.3-1.1-1.9c-0.2-0.3-0.7-1.2-0.9-1.6
					c0.2-0.3,0.7-1.4,0.8-1.7c0.3-0.7,0.6-1.3,0.9-2C122.1,94.2,121.1,93.7,120.5,93.9z"/>
				<path class="st2" d="M135.5,89.4c-1.2,0.3-2.4,0.5-3.7,0.8c-0.9-0.9-1.9-1.8-2.9-2.7c-0.6-0.5-1.9-0.2-2,0.7
					c-0.1,1.3-0.2,2.7-0.4,4c-1.1,0.6-2.2,1.2-3.3,1.8c-0.6,0.3-1,1.2-0.2,1.6c0.7,0.3,1.4,0.6,2,0.9c0.3,0.1,1.2,0.6,1.6,0.7
					c0,0.2,0.1,0.4,0.2,0.5c0.1,0.4,0.2,0.9,0.3,1.3c0.1,0.7,0.3,1.4,0.4,2.2c0.2,1,1.6,0.7,2.1,0.2c0.8-0.9,1.7-1.9,2.5-2.8
					c1.2,0.2,2.4,0.3,3.6,0.4c0.1,0,0.2,0,0.3,0c0.8,0,1.6-0.6,1.2-1.4c-0.4-0.6-0.8-1.3-1.1-1.9c-0.2-0.3-0.7-1.2-0.9-1.6
					c0.2-0.3,0.7-1.4,0.8-1.7c0.3-0.7,0.6-1.3,0.9-2C137.2,89.7,136.2,89.2,135.5,89.4z"/>
				<path class="st2" d="M151.6,85.8c-1.3,0.1-2.6,0.2-3.9,0.3c-0.8-1-1.6-2-2.5-3c-0.6-0.8-2-0.5-2.2,0.5c-0.3,1.2-0.6,2.5-0.9,3.8
					c-1.2,0.5-2.4,0.9-3.6,1.4c-0.7,0.3-0.9,1.1-0.2,1.6c0.6,0.4,1.3,0.8,1.9,1.1c0.4,0.2,0.8,0.5,1.1,0.7c0.1,0.1,0.2,0.1,0.3,0.2
					c0,0.2,0.1,0.5,0.1,0.6c-0.1,0.5,0.1,0.9,0.1,1.4c0,0.7,0.1,1.5,0.2,2.2c0,0.8,1.4,0.8,1.9,0.4c0.6-0.5,1.1-1,1.7-1.5
					c0.2-0.2,0.9-0.7,1.3-1c0.1,0,0.1,0,0.1,0c0.4,0.2,0.9,0.2,1.3,0.3c0.5,0.1,1,0.2,1.4,0.4c0.5,0.6,2.1,0.1,2.1-0.8
					c0-0.2,0-0.4-0.2-0.6c-0.5-1.1-1-2.3-1.4-3.4c0.7-1.1,1.4-2.2,2.1-3.3C152.9,86.5,152.5,85.8,151.6,85.8z"/>
				<g>
					<path class="st3" d="M68.8,59.7c6.5-2.4,13-4.7,19.6-6.8c3.3-1.1,6.6-2.1,9.9-3.1l9.9-3L118,44c3.3-0.9,6.6-1.9,10-2.8
						c6.7-1.8,13.3-3.5,20.1-4.9c-6.5,2.4-13,4.7-19.6,6.8c-3.3,1.1-6.6,2.1-9.9,3.1l-9.9,3L98.9,52c-3.3,0.9-6.6,1.9-10,2.8
						C82.2,56.6,75.5,58.3,68.8,59.7z"/>
				</g>
				<g>
					<path class="st3" d="M73.1,69.8c6.5-2.4,13.1-4.7,19.7-6.8c3.3-1.1,6.6-2.1,9.9-3.1l10-3l10-2.9c3.3-0.9,6.7-1.9,10-2.8
						c6.7-1.8,13.4-3.5,20.2-5c-6.5,2.4-13.1,4.7-19.7,6.8c-3.3,1.1-6.6,2.1-9.9,3.1l-10,3l-10,2.9c-3.3,0.9-6.7,1.9-10,2.8
						C86.6,66.6,79.9,68.3,73.1,69.8z"/>
				</g>
				<g>
					<path class="st3" d="M87.2,79c4.4-1.8,8.8-3.4,13.3-4.9c2.2-0.8,4.5-1.4,6.7-2.2l6.8-2.1l6.8-1.9c2.3-0.6,4.5-1.3,6.8-1.8
						c4.6-1.2,9.2-2.3,13.8-3.1c-4.4,1.8-8.8,3.4-13.3,4.9c-2.2,0.8-4.5,1.4-6.7,2.2l-6.8,2.1l-6.8,1.9c-2.3,0.6-4.5,1.3-6.8,1.8
						C96.5,77.1,91.9,78.2,87.2,79z"/>
				</g>
			</g>
			<g>
				<g>
					<path class="st7" d="M334,134.2c-0.2-9.3-0.9-18.9-5.6-27c-3-5.1-7.1-9-12-12.1c-10.9-6.7-25.4-8.9-38.5-10
						c-29.6-2.4-59.3-3.1-89-2.1c-5.8,0.2-11.9,0.5-17.4,2.3l0,0c-6.9,2.2-19.4,4.1-21.3,11.1s-1.3,14.4-0.6,21.6
						c1.5,14.3,3.9,28.6,9.5,41.8c0.1,0.1,0.1,0.2,0.1,0.3c0.8,1.8,1.6,3.7,2.6,5.4c5.5,10.6,13.5,20.1,23.9,25.9
						c0.2,0.1,0.5,0.3,0.7,0.4c7.6,4.2,16.1,6.3,24.7,7.7c0.5,0.1,0.9,0.2,1.3,0.2c7.8,1.3,15.8,2.1,23.8,2.5
						c3.3,5.8,6.5,11.6,9.8,17.3c1.9,3.4,3.9,6.9,5.8,10.4c0.7-1.7,1.4-3.6,2.1-5.3c2.7-7.4,4.6-15,5.5-22.6
						c19.8-1.3,39.5-5.4,58.2-12.3c4.1-1.5,8.3-3.3,10.9-6.8c2.2-3.1,2.8-6.9,3.3-10.7c0.1-0.7,0.2-1.3,0.2-2.1l0,0
						C333.6,158.3,334.2,146.3,334,134.2z"/>
				</g>
				<path class="st2" d="M224.7,170.6c-1.3-0.1-2.5-0.2-3.8-0.3c-0.7-1.1-1.3-2.2-2-3.4c-0.4-0.7-1.8-0.7-2.1,0.1
					c-0.5,1.3-1,2.5-1.5,3.7c-1.2,0.3-2.4,0.6-3.7,0.8c-0.7,0.1-1.3,0.8-0.6,1.4c0.5,0.5,1.1,1,1.7,1.4c0.2,0.2,1,0.9,1.3,1.1
					c0,0.2,0,0.5,0,0.5c-0.1,0.4-0.1,0.9-0.1,1.3c-0.1,0.7-0.1,1.4-0.2,2.2c-0.1,1,1.3,1.1,1.9,0.8c1.1-0.7,2.1-1.3,3.2-2
					c1.1,0.5,2.2,1,3.3,1.4c0.1,0,0.2,0.1,0.3,0.1c0.7,0.2,1.7-0.2,1.5-1c-0.2-0.7-0.4-1.4-0.5-2.2c-0.1-0.3-0.3-1.4-0.5-1.8
					c0.3-0.3,1-1.1,1.2-1.4c0.5-0.5,1-1.1,1.4-1.7C226.2,171.4,225.4,170.6,224.7,170.6z"/>
				<path class="st2" d="M240,170.6c-1.3-0.1-2.5-0.2-3.8-0.3c-0.7-1.1-1.3-2.2-2-3.4c-0.4-0.7-1.8-0.7-2.1,0.1
					c-0.5,1.3-1,2.5-1.5,3.7c-1.2,0.3-2.4,0.6-3.7,0.8c-0.7,0.1-1.3,0.8-0.6,1.4c0.5,0.5,1.1,1,1.7,1.4c0.2,0.2,1,0.9,1.3,1.1
					c0,0.2,0,0.5,0,0.5c-0.1,0.4-0.1,0.9-0.1,1.3c-0.1,0.7-0.1,1.4-0.2,2.2c-0.1,1,1.3,1.1,1.9,0.8c1.1-0.7,2.1-1.3,3.2-2
					c1.1,0.5,2.2,1,3.3,1.4c0.1,0,0.2,0.1,0.3,0.1c0.7,0.2,1.7-0.2,1.5-1c-0.2-0.7-0.4-1.4-0.5-2.2c-0.1-0.3-0.3-1.4-0.5-1.8
					c0.3-0.3,1-1.1,1.2-1.4c0.5-0.5,1-1.1,1.4-1.7C241.5,171.4,240.7,170.6,240,170.6z"/>
				<path class="st2" d="M255.6,170.6c-1.3-0.1-2.5-0.2-3.8-0.3c-0.7-1.1-1.3-2.2-2-3.4c-0.4-0.7-1.8-0.7-2.1,0.1
					c-0.5,1.3-1,2.5-1.5,3.7c-1.2,0.3-2.4,0.6-3.7,0.8c-0.7,0.1-1.3,0.8-0.6,1.4c0.5,0.5,1.1,1,1.7,1.4c0.2,0.2,1,0.9,1.3,1.1
					c0,0.2,0,0.5,0,0.5c-0.1,0.4-0.1,0.9-0.1,1.3c-0.1,0.7-0.1,1.4-0.2,2.2c-0.1,1,1.3,1.1,1.9,0.8c1.1-0.7,2.1-1.3,3.2-2
					c1.1,0.5,2.2,1,3.3,1.4c0.1,0,0.2,0.1,0.3,0.1c0.7,0.2,1.7-0.2,1.5-1c-0.2-0.7-0.4-1.4-0.5-2.2c-0.1-0.3-0.3-1.4-0.5-1.8
					c0.3-0.3,1-1.1,1.2-1.4c0.5-0.5,1-1.1,1.4-1.7C257.1,171.4,256.2,170.6,255.6,170.6z"/>
				<path class="st2" d="M271.3,170.6c-1.3-0.1-2.5-0.2-3.8-0.3c-0.7-1.1-1.3-2.2-2-3.4c-0.4-0.7-1.8-0.7-2.1,0.1
					c-0.5,1.3-1,2.5-1.5,3.7c-1.2,0.3-2.4,0.6-3.7,0.8c-0.7,0.1-1.3,0.8-0.6,1.4c0.5,0.5,1.1,1,1.7,1.4c0.2,0.2,1,0.9,1.3,1.1
					c0,0.2,0,0.5,0,0.5c-0.1,0.4-0.1,0.9-0.1,1.3c-0.1,0.7-0.1,1.4-0.2,2.2c-0.1,1,1.3,1.1,1.9,0.8c1.1-0.7,2.1-1.3,3.2-2
					c1.1,0.5,2.2,1,3.3,1.4c0.1,0,0.2,0.1,0.3,0.1c0.7,0.2,1.7-0.2,1.5-1c-0.2-0.7-0.4-1.4-0.5-2.2c-0.1-0.3-0.3-1.4-0.5-1.8
					c0.3-0.3,1-1.1,1.2-1.4c0.5-0.5,1-1.1,1.4-1.7C272.8,171.4,271.9,170.6,271.3,170.6z"/>
				<path class="st2" d="M287.7,171.7c-1.3-0.3-2.5-0.5-3.8-0.8c-0.5-1.2-1-2.4-1.5-3.6c-0.4-0.9-1.7-1-2.2-0.1
					c-0.6,1.1-1.3,2.2-1.9,3.4c-1.3,0.1-2.6,0.2-3.8,0.4c-0.8,0.1-1.1,0.8-0.6,1.4c0.5,0.5,1,1.1,1.5,1.6c0.3,0.3,0.6,0.7,0.9,1
					c0.1,0.1,0.2,0.2,0.2,0.3c-0.1,0.2-0.1,0.5-0.1,0.6c-0.2,0.4-0.2,0.9-0.3,1.3c-0.2,0.7-0.3,1.4-0.5,2.2
					c-0.2,0.8,1.1,1.1,1.7,0.9c0.7-0.3,1.3-0.6,2.1-0.9c0.3-0.1,1.1-0.4,1.5-0.6c0,0,0.1,0,0.1,0.1c0.4,0.3,0.8,0.5,1.1,0.7
					c0.4,0.2,0.8,0.5,1.3,0.8c0.3,0.8,1.9,0.6,2.2-0.2c0.1-0.2,0.1-0.4,0-0.6c-0.1-1.2-0.3-2.4-0.4-3.6c1-0.8,2-1.7,3-2.6
					C288.7,172.7,288.5,171.9,287.7,171.7z"/>
				<g>
					<path class="st3" d="M192.3,113.6c9.4-0.5,18.8-0.8,28.3-1c4.7-0.1,9.4-0.1,14.1-0.2l14.1-0.1l14.1,0.1
						c4.7,0.1,9.4,0.1,14.1,0.2c9.4,0.2,18.8,0.4,28.3,1c-9.4,0.5-18.8,0.8-28.3,1c-4.7,0.1-9.4,0.1-14.1,0.2l-14.1,0.1l-14.1-0.1
						c-4.7-0.1-9.4-0.1-14.1-0.2C211.2,114.4,201.7,114.2,192.3,113.6z"/>
				</g>
				<g>
					<path class="st3" d="M303.6,122.8c-10.5,0.5-21,0.8-31.5,1c-5.2,0.1-10.5,0.1-15.8,0.2l-15.8,0.1l-15.8-0.1
						c-5.2-0.1-10.5-0.1-15.8-0.2c-10.5-0.2-21-0.4-31.5-1c10.5-0.5,21-0.8,31.5-1c5.2-0.1,10.5-0.1,15.8-0.2l15.8-0.1l15.8,0.1
						c5.2,0.1,10.5,0.1,15.8,0.2C282.6,122,293.1,122.3,303.6,122.8z"/>
				</g>
				<g>
					<path class="st3" d="M196.1,137.3c8.6-0.5,17.1-0.8,25.6-1c4.3-0.1,8.6-0.1,12.8-0.2l12.8-0.1l12.8,0.1
						c4.3,0.1,8.6,0.1,12.8,0.2c8.6,0.2,17.1,0.4,25.6,1c-8.6,0.5-17.1,0.8-25.6,1c-4.3,0.1-8.6,0.1-12.8,0.2l-12.8,0.1l-12.8-0.1
						c-4.3-0.1-8.6-0.1-12.8-0.2C213.1,138.1,204.6,137.8,196.1,137.3z"/>
				</g>
				<g>
					<path class="st3" d="M214,148.9c5.9-0.5,11.8-0.8,17.8-1c3-0.1,5.9-0.1,8.9-0.2l8.9-0.1l8.9,0.1c3,0.1,5.9,0.1,8.9,0.2
						c5.9,0.2,11.8,0.4,17.8,1c-5.9,0.5-11.8,0.8-17.8,1c-3,0.1-5.9,0.1-8.9,0.2l-8.9,0.1l-8.9-0.1c-3-0.1-5.9-0.1-8.9-0.2
						C225.8,149.6,219.9,149.3,214,148.9z"/>
				</g>
			</g>
			<g>
				<g>
					<path class="st8" d="M188.3,191.7c-0.8-6.8-2.2-14-6.5-19.4c-7.4-9.2-20.8-10.5-32.7-10.8c-15-0.4-29.9-0.6-44.8-0.5
						c-10.5,0.1-20.9,0.3-31.4,0.7l1,1.7c-5.2,2.4-9.4,6.3-12.7,11.1c-3.3,4.9-5.6,10.6-6.8,16.3c-1.3,6.4-1.5,13-1.1,19.6
						c0.3,5.6,1,11,1.8,16.5c0.5,3.7,1,7.6,1.8,11.3l0,0c1.6,6.7,4.1,12.9,9.1,17.4c7.3,6.5,17.9,7.5,27.8,7.7
						c7.7,0.2,15.4,0.1,23.1-0.2c3.1,7.1,5.4,14.6,6.9,22.2c3.7-7.4,6.6-15.3,8.7-23.2c10.9-1,21.8-2.4,32.5-4.3
						c7.7-1.4,16.2-3.6,20.4-10.2c2.3-3.6,2.9-7.9,3.4-12.1C190.3,220.9,190.1,206.1,188.3,191.7z"/>
				</g>
				<path class="st2" d="M95.6,233.3c-1.4,0-2.7-0.1-4.1-0.1c-0.8-1.2-1.6-2.4-2.3-3.6c-0.5-0.7-2-0.7-2.3,0.2
					c-0.5,1.4-0.9,2.8-1.5,4.1c-1.3,0.4-2.6,0.7-3.9,1.1c-0.7,0.2-1.4,1-0.6,1.6c0.6,0.5,1.3,1,1.9,1.5c0.3,0.2,1.1,0.9,1.5,1.2
					c0,0.2,0,0.5,0,0.6c0,0.5,0,1-0.1,1.4c0,0.8-0.1,1.6-0.1,2.4c-0.1,1.1,1.5,1.2,2.1,0.8c1.1-0.8,2.2-1.5,3.3-2.3
					c1.2,0.5,2.5,0.9,3.7,1.4c0.1,0,0.2,0.1,0.3,0.1c0.8,0.2,1.8-0.3,1.6-1.1c-0.2-0.8-0.5-1.6-0.7-2.3c-0.1-0.3-0.4-1.5-0.6-1.9
					c0.3-0.3,1-1.3,1.3-1.5c0.5-0.6,1-1.2,1.5-1.9C97.2,234,96.3,233.3,95.6,233.3z"/>
				<path class="st2" d="M112.2,232.5c-1.4,0-2.7-0.1-4.1-0.1c-0.8-1.2-1.6-2.4-2.3-3.6c-0.5-0.7-2-0.7-2.3,0.2
					c-0.5,1.4-0.9,2.8-1.5,4.1c-1.3,0.4-2.6,0.7-3.9,1.1c-0.7,0.2-1.4,1-0.6,1.6c0.6,0.5,1.3,1,1.9,1.5c0.3,0.2,1.1,0.9,1.5,1.2
					c0,0.2,0,0.5,0,0.6c0,0.5,0,1-0.1,1.4c0,0.8-0.1,1.6-0.1,2.4c-0.1,1.1,1.5,1.2,2.1,0.8c1.1-0.8,2.2-1.5,3.3-2.3
					c1.2,0.5,2.5,0.9,3.7,1.4c0.1,0,0.2,0.1,0.3,0.1c0.8,0.2,1.8-0.3,1.6-1.1c-0.2-0.8-0.5-1.6-0.7-2.3c-0.1-0.3-0.4-1.5-0.6-1.9
					c0.3-0.3,1-1.3,1.3-1.5c0.5-0.6,1-1.2,1.5-1.9C113.8,233.2,112.9,232.5,112.2,232.5z"/>
				<path class="st2" d="M129.1,231.7c-1.4,0-2.7-0.1-4.1-0.1c-0.8-1.2-1.6-2.4-2.3-3.6c-0.5-0.7-2-0.7-2.3,0.2
					c-0.5,1.4-0.9,2.8-1.5,4.1c-1.3,0.4-2.6,0.7-3.9,1.1c-0.7,0.2-1.4,1-0.6,1.6c0.6,0.5,1.3,1,1.9,1.5c0.3,0.2,1.1,0.9,1.5,1.2
					c0,0.2,0,0.5,0,0.6c0,0.5,0,1-0.1,1.4c0,0.8-0.1,1.6-0.1,2.4c-0.1,1.1,1.5,1.2,2.1,0.8c1.1-0.8,2.2-1.5,3.3-2.3
					c1.2,0.5,2.5,0.9,3.7,1.4c0.1,0,0.2,0.1,0.3,0.1c0.8,0.2,1.8-0.3,1.6-1.1c-0.2-0.8-0.5-1.6-0.7-2.3c-0.1-0.3-0.4-1.5-0.6-1.9
					c0.3-0.3,1-1.3,1.3-1.5c0.5-0.6,1-1.2,1.5-1.9C130.8,232.4,129.8,231.7,129.1,231.7z"/>
				<path class="st2" d="M146,230.9c-1.4,0-2.7-0.1-4.1-0.1c-0.8-1.2-1.6-2.4-2.3-3.6c-0.5-0.7-2-0.7-2.3,0.2
					c-0.5,1.4-0.9,2.8-1.5,4.1c-1.3,0.4-2.6,0.7-3.9,1.1c-0.7,0.2-1.4,1-0.6,1.6c0.6,0.5,1.3,1,1.9,1.5c0.3,0.2,1.1,0.9,1.5,1.2
					c0,0.2,0,0.5,0,0.6c0,0.5,0,1-0.1,1.4c0,0.8-0.1,1.6-0.1,2.4c-0.1,1.1,1.5,1.2,2.1,0.8c1.1-0.8,2.2-1.5,3.3-2.3
					c1.2,0.5,2.5,0.9,3.7,1.4c0.1,0.1,0.3,0.1,0.4,0.1c0.8,0.1,1.6-0.4,1.4-1.2c-0.2-0.8-0.5-1.6-0.7-2.3c-0.1-0.3-0.4-1.5-0.6-1.9
					c0.3-0.3,1-1.3,1.3-1.5c0.5-0.6,1-1.2,1.5-1.9C147.7,231.6,146.8,230.8,146,230.9z"/>
				<path class="st2" d="M164.5,232.9c0.6-0.6,0.4-1.5-0.5-1.6c-1.4-0.2-2.8-0.4-4.2-0.7c-0.6-1.3-1.2-2.5-1.8-3.8
					c-0.4-1-1.9-1-2.4,0c-0.6,1.2-1.3,2.5-1.9,3.7c-1.4,0.2-2.8,0.4-4.1,0.6c-0.8,0.1-1.2,1-0.6,1.6c0.6,0.6,1.2,1.1,1.7,1.7
					c0.3,0.3,0.7,0.7,1,1c0.1,0.1,0.2,0.2,0.3,0.3c-0.1,0.2-0.1,0.6-0.1,0.6c-0.2,0.5-0.2,1-0.3,1.5c-0.2,0.8-0.3,1.6-0.4,2.4
					c-0.2,0.9,1.3,1.2,1.9,0.9c0.7-0.4,1.4-0.7,2.2-1.1c0.3-0.2,1.1-0.5,1.6-0.7c0.1,0,0.1,0,0.1,0.1c0.4,0.3,0.9,0.5,1.3,0.7
					c0.5,0.2,0.9,0.5,1.4,0.7c0.4,0.9,2.6,0.5,2.4-0.7c0,0,0,0,0,0c0-0.1,0-0.1,0-0.2c-0.2-1.3-0.5-2.7-0.6-4.1
					C162.4,234.9,163.4,233.9,164.5,232.9z"/>
				<g>
					<path class="st3" d="M81.2,182.4c6.5-0.8,13-1.5,19.6-2c3.3-0.3,6.5-0.4,9.8-0.7l9.8-0.5l9.8-0.4c3.3-0.1,6.5-0.2,9.8-0.3
						c6.5-0.1,13.1-0.2,19.7,0.1c-6.5,0.8-13,1.5-19.6,2c-3.3,0.3-6.5,0.4-9.8,0.7l-9.8,0.5l-9.8,0.4c-3.3,0.1-6.5,0.2-9.8,0.3
						C94.3,182.6,87.7,182.6,81.2,182.4z"/>
				</g>
				<g>
					<path class="st3" d="M79.2,195.3c7.6-0.9,15.1-1.6,22.7-2.1c3.8-0.3,7.6-0.5,11.4-0.7l11.4-0.6l11.4-0.5
						c3.8-0.1,7.6-0.3,11.4-0.3c7.6-0.2,15.2-0.3,22.8,0c-7.6,0.9-15.1,1.6-22.7,2.1c-3.8,0.3-7.6,0.5-11.4,0.7l-11.4,0.6l-11.4,0.5
						c-3.8,0.1-7.6,0.3-11.4,0.3C94.4,195.5,86.8,195.6,79.2,195.3z"/>
				</g>
				<g>
					<path class="st3" d="M95.6,206.7c3.7-0.7,7.4-1.2,11.1-1.6s7.4-0.6,11.1-0.8c3.7-0.2,7.4-0.3,11.1-0.3c3.7,0,7.4,0.1,11.2,0.5
						c-3.7,0.7-7.4,1.2-11.1,1.6c-3.7,0.4-7.4,0.6-11.1,0.8c-3.7,0.2-7.4,0.3-11.1,0.3C103,207.2,99.2,207.1,95.6,206.7z"/>
				</g>
				<g>
					<path class="st3" d="M79.8,215.5c7.2-0.9,14.4-1.5,21.6-2.1c3.6-0.3,7.2-0.5,10.8-0.7l10.9-0.6l10.9-0.4
						c3.6-0.1,7.2-0.3,10.9-0.3c7.2-0.1,14.5-0.2,21.7,0c-7.2,0.9-14.4,1.5-21.6,2.1c-3.6,0.3-7.2,0.5-10.8,0.7l-10.9,0.6l-10.9,0.4
						c-3.6,0.1-7.2,0.3-10.9,0.3C94.2,215.7,87,215.7,79.8,215.5z"/>
				</g>
			</g>
		</g>
	</g>
</g>
</svg>
